<svg width="26" height="33" viewBox="0 0 26 33" fill="none" xmlns="http://www.w3.org/2000/svg">
<path fill-rule="evenodd" clip-rule="evenodd" d="M8.80285 0.540213C7.51367 0.655239 5.1668 1.04373 5.04495 1.16226C5.01593 1.19046 5.06309 1.42465 5.14978 1.68266C5.94433 4.04836 5.95666 6.86578 5.183 9.28096C5.04039 9.72617 5.01162 9.88723 5.06828 9.92232C5.19513 10.0007 6.91558 10.3579 7.939 10.5183C9.55481 10.7717 11.9008 10.9845 13.0776 10.9845H13.573V11.9302V12.876L12.7755 12.8344C12.3369 12.8116 11.5747 12.7635 11.0817 12.7276C10.5888 12.6916 10.169 12.6788 10.1488 12.699C10.1286 12.7192 10.3707 15.2197 10.6867 18.2556C11.0028 21.2916 11.2608 23.7967 11.2601 23.8225C11.2593 23.8483 13.0017 23.8694 15.1321 23.8694H19.0055L19.0313 17.724C19.0541 12.2699 19.0686 11.5348 19.1601 11.1882C19.2981 10.6656 19.5505 10.1297 19.9734 9.46172C20.3593 8.85225 20.6372 8.18893 20.8362 7.40244C20.9494 6.95516 20.9707 6.63692 20.9988 4.97958L21.0311 3.07167L20.5702 2.80853C18.7446 1.76635 16.3033 0.992562 13.6981 0.630407C12.8539 0.513004 9.74846 0.455835 8.80285 0.540213ZM2.35044 1.9483C1.94031 2.10142 1.24371 2.40052 0.802369 2.61294L0 2.99911V5.55208V8.10511L0.297104 8.2551C0.770532 8.49404 1.78888 8.91761 2.51119 9.17594L3.1772 9.41418L3.30743 9.05778C3.49138 8.55439 3.66964 7.86105 3.79305 7.16901C3.94867 6.29584 3.93472 4.67071 3.76334 3.71942C3.62304 2.94069 3.25795 1.71706 3.15712 1.68766C3.1236 1.67784 2.76057 1.79518 2.35044 1.9483ZM16.2 5.88677V6.79372H13.6042H11.0085V5.88677V4.97983H13.6042H16.2V5.88677ZM24.4876 13.8716C24.0426 13.9546 23.1053 14.4294 22.729 14.7622C22.3016 15.1401 21.865 15.7925 21.656 16.365L21.4853 16.8327L21.4523 22.6497C21.43 26.5871 21.3974 28.5275 21.3515 28.6549C20.9712 29.7115 20.1926 30.3864 19.1399 30.5719C17.9086 30.7887 16.6194 29.9934 16.2042 28.7606C16.0898 28.421 16.0749 28.2255 16.0749 27.0614V25.7458H15.1054H14.1359L14.1364 26.9812C14.1367 27.6606 14.1664 28.3995 14.2025 28.6231C14.5595 30.8333 16.5098 32.5042 18.7276 32.5C19.4951 32.4985 20.0622 32.368 20.7347 32.0381C21.919 31.4573 22.679 30.5992 23.1226 29.3424L23.2992 28.842L23.3328 23.025C23.3597 18.3422 23.3828 17.1632 23.4512 16.9782C23.6751 16.3727 24.3244 15.8359 24.9391 15.7481L25.2382 15.7054L25.2555 14.7523L25.2727 13.7991L25.0366 13.8061C24.9067 13.8099 24.6596 13.8394 24.4876 13.8716Z" fill="#DBBAA7"/>
</svg>
