<svg width="19" height="19" viewBox="0 0 19 19" fill="none" xmlns="http://www.w3.org/2000/svg">
<path fill-rule="evenodd" clip-rule="evenodd" d="M9.42369 18.4416C9.01085 18.2905 8.71315 17.8061 8.77037 17.3787C8.82484 16.9718 8.76899 17.0353 12.0133 13.6907L15.081 10.5284L1.25389 10.5202L1.08711 10.4403C0.875258 10.3388 0.636145 10.0716 0.550686 9.84059C0.467521 9.6158 0.489029 9.24804 0.598101 9.03022C0.686786 8.85305 0.86802 8.66805 1.05156 8.56737C1.17668 8.49875 1.43499 8.49558 8.15096 8.48013L15.1205 8.46408L12.0234 5.26873C9.19493 2.35042 8.92118 2.05705 8.86629 1.8852C8.60353 1.06207 9.29167 0.308659 10.0917 0.543558L10.3087 0.6073L14.3215 4.73519C16.6835 7.16484 18.3673 8.92591 18.4144 9.01577C18.5314 9.23885 18.5279 9.712 18.4075 9.95144C18.3471 10.0717 17.1267 11.3544 14.3448 14.2214C11.0633 17.6032 10.3372 18.3335 10.1895 18.4004C9.93088 18.5175 9.66948 18.5315 9.42369 18.4416Z" fill="#1A1919"/>
</svg>
