<svg width="16" height="17" viewBox="0 0 16 17" fill="none" xmlns="http://www.w3.org/2000/svg">
<path fill-rule="evenodd" clip-rule="evenodd" d="M7.19305 0.529956C3.80789 0.875925 0.998516 3.33028 0.201124 6.63836C0.0354082 7.3258 -0.000155882 7.65751 5.12568e-07 8.51387C0.000125628 9.30252 0.0141698 9.45906 0.144384 10.1237C0.476597 11.8191 1.47962 13.5031 2.82964 14.6319C4.01174 15.6204 5.35338 16.2179 6.89258 16.4416C7.51363 16.5318 8.76885 16.515 9.36293 16.4085C12.8389 15.7852 15.4948 13.0203 15.9497 9.55162C16.0228 8.99412 16.0151 7.91295 15.934 7.3614C15.6803 5.63409 14.8938 4.07373 13.6546 2.83908C12.1211 1.3112 10.1047 0.483131 7.95938 0.500261C7.67553 0.502542 7.33068 0.51589 7.19305 0.529956ZM8.92903 4.13762C9.70396 4.31104 10.2734 4.71412 10.5546 5.28831C10.7196 5.62505 10.7742 5.84677 10.795 6.26326C10.8375 7.11618 10.5891 7.57664 9.58857 8.49955C8.98045 9.06052 8.8401 9.29036 8.76941 9.84116L8.73316 10.1237H7.89273H7.05229L7.05254 9.9752C7.05342 9.47766 7.16656 8.92676 7.34306 8.56076C7.46145 8.31525 7.51194 8.2547 8.00765 7.76366C8.4656 7.31001 8.55969 7.20032 8.65055 7.01402C8.7513 6.80741 8.75696 6.77818 8.75615 6.467C8.75537 6.17042 8.74689 6.12216 8.66966 5.97427C8.56701 5.77763 8.41333 5.667 8.18206 5.62318C7.681 5.52822 7.30118 5.82017 7.20331 6.37544L7.17072 6.56021H6.16863H5.16655L5.18717 6.31333C5.28882 5.09541 6.07258 4.29132 7.3521 4.09233C7.64315 4.04706 8.65409 4.0761 8.92903 4.13762ZM8.43373 11.037C8.65809 11.1396 8.80272 11.2708 8.91508 11.4735C8.99894 11.6248 9.00723 11.6664 9.00723 11.9367C9.00723 12.2079 8.99912 12.2482 8.9137 12.4024C8.80914 12.5911 8.58311 12.7804 8.36407 12.8627C8.27198 12.8973 8.12525 12.9155 7.9281 12.9167C7.66552 12.9184 7.60806 12.9082 7.43418 12.8292C7.18573 12.7162 6.95477 12.4734 6.87904 12.2456C6.80569 12.0248 6.82809 11.6884 6.92968 11.4851C7.04657 11.2512 7.32354 11.0399 7.60699 10.9684C7.81941 10.9149 8.24371 10.9501 8.43373 11.037Z" fill="#FEFFFF"/>
</svg>
