<svg width="16" height="15" viewBox="0 0 16 15" fill="none" xmlns="http://www.w3.org/2000/svg">
<path fill-rule="evenodd" clip-rule="evenodd" d="M1.332 0.488375C0.915375 0.617031 0.610656 0.963812 0.485313 1.45187C0.447469 1.59934 0.4375 1.8385 0.4375 2.60031V3.5625H7.96875H15.5V2.624C15.5 1.75806 15.495 1.67072 15.4354 1.49378C15.276 1.0205 14.819 0.626 14.2669 0.485062C14.1238 0.448531 13.8939 0.4375 13.2762 0.4375H12.4717L12.4624 1.24753L12.4531 2.05759L12.375 2.14112C12.1597 2.37134 11.8715 2.37134 11.6562 2.14112L11.5781 2.05759L11.5688 1.24753L11.5595 0.4375H7.78125H4.00297L3.99366 1.24753L3.98438 2.05759L3.90625 2.14112C3.691 2.37134 3.40278 2.37134 3.1875 2.14116L3.10938 2.05759L3.09375 1.25538L3.07812 0.453125L2.28125 0.447219C1.64694 0.442531 1.45328 0.450906 1.332 0.488375ZM0.4375 8.93325C0.4375 11.7967 0.448656 13.394 0.469406 13.5034C0.549438 13.9255 0.810813 14.2722 1.18122 14.4477L1.39062 14.5469L7.74353 14.5551C14.8055 14.5642 14.2967 14.579 14.7298 14.3514C15.0425 14.1871 15.2849 13.9393 15.4297 13.6361L15.5469 13.3906L15.5554 8.96094L15.5639 4.53125H8.00072H0.4375V8.93325ZM4.84341 6.32794C5.02562 6.42219 5.03125 6.44866 5.03125 7.21163C5.03125 8.23081 5.07456 8.1875 4.05538 8.1875C3.08397 8.1875 3.125 8.22891 3.125 7.24847C3.125 6.25478 3.09688 6.28303 4.0875 6.28197C4.61794 6.28141 4.77144 6.29072 4.84341 6.32794ZM8.56216 6.32794C8.74572 6.42287 8.75 6.44409 8.75 7.25934V8.00481L8.65866 8.09616L8.56731 8.1875H7.82184C6.79509 8.1875 6.84375 8.23419 6.84375 7.24847C6.84375 6.50678 6.86628 6.40316 7.04441 6.32559C7.19041 6.26203 8.43841 6.26397 8.56216 6.32794ZM12.3288 6.33053C12.5121 6.4175 12.5312 6.50462 12.5312 7.25C12.5312 7.97253 12.51 8.08191 12.3564 8.15191C12.2321 8.20856 10.8965 8.20022 10.7841 8.14209C10.629 8.06191 10.6094 7.95819 10.6094 7.21875C10.6094 6.48375 10.6167 6.44853 10.7911 6.34219C10.8814 6.28709 10.9523 6.28147 11.5578 6.28137C12.1008 6.28128 12.2443 6.29044 12.3288 6.33053ZM4.87047 10.5758C5.01747 10.6518 5.03128 10.7282 5.03078 11.4624C5.03028 12.2078 5.02209 12.2479 4.8465 12.3663C4.74478 12.4348 4.71581 12.4375 4.08603 12.4375C3.09947 12.4375 3.125 12.4632 3.125 11.4703C3.125 10.4881 3.08147 10.5312 4.071 10.5312C4.62728 10.5312 4.80331 10.5411 4.87047 10.5758ZM8.5715 10.5652C8.73519 10.6397 8.75 10.7157 8.75 11.4799C8.75 11.9403 8.73766 12.2116 8.71441 12.2627C8.64441 12.4163 8.53503 12.4375 7.8125 12.4375C6.817 12.4375 6.84375 12.4642 6.84375 11.4703C6.84375 10.4884 6.80072 10.5312 7.78672 10.5312C8.23091 10.5312 8.52494 10.544 8.5715 10.5652ZM12.3682 10.58C12.5166 10.6839 12.5312 10.7639 12.5312 11.4682C12.5312 12.4726 12.5659 12.4376 11.5719 12.4374C10.9524 12.4373 10.8816 12.4317 10.7911 12.3766C10.6167 12.2702 10.6094 12.235 10.6094 11.5C10.6094 10.7671 10.6291 10.6589 10.7778 10.5781C10.9033 10.5098 12.2704 10.5115 12.3682 10.58Z" fill="#DBBAA7"/>
</svg>
