<svg width="20" height="20" viewBox="0 0 20 20" fill="none" xmlns="http://www.w3.org/2000/svg">
<path fill-rule="evenodd" clip-rule="evenodd" d="M9.04222 0.0219113C8.63069 0.0730827 8.01598 0.17419 7.78579 0.228492C4.8035 0.932285 2.33594 2.89344 1.00667 5.61637C0.32276 7.0174 0 8.42478 0 10.006C0 11.5872 0.32276 12.9946 1.00667 14.3956C1.49759 15.4012 2.08622 16.2278 2.89388 17.0459C4.45734 18.6296 6.36206 19.5881 8.65088 19.9429C9.19992 20.028 10.9467 20.0154 11.5139 19.9222C13.6727 19.5676 15.5729 18.6023 17.0881 17.0906C18.3609 15.8207 19.2713 14.2284 19.7137 12.4986C19.9575 11.5451 20 11.175 20 10.006C20 8.83699 19.9575 8.46689 19.7137 7.51333C18.9884 4.67703 17.0444 2.2955 14.3975 1.00072C12.9712 0.302983 11.5718 -0.0122442 9.9567 0.000363243C9.52169 0.00374171 9.1102 0.0134651 9.04222 0.0219113ZM8.8435 7.74863L10.0103 8.91091L11.1771 7.74863L12.3439 6.58632H12.5646C12.7851 6.58632 12.7856 6.58656 13.1074 6.90842C13.4292 7.23028 13.4295 7.23074 13.4295 7.45133V7.67208L12.2673 8.83901L11.1052 10.006L12.2673 11.173L13.4295 12.3399V12.5606C13.4295 12.7812 13.4292 12.7817 13.1074 13.1035C12.7856 13.4254 12.7851 13.4257 12.5646 13.4257H12.3439L11.1771 12.2633L10.0103 11.1011L8.8435 12.2633L7.67675 13.4257H7.45602C7.23547 13.4257 7.23501 13.4254 6.9132 13.1035C6.59139 12.7817 6.59114 12.7812 6.59114 12.5606V12.3399L7.75328 11.173L8.91539 10.006L7.75328 8.83901L6.59114 7.67208V7.45133C6.59114 7.23074 6.59139 7.23028 6.9132 6.90842C7.23501 6.58656 7.23547 6.58632 7.45602 6.58632H7.67675L8.8435 7.74863Z" fill="#D1D1D2"/>
</svg>
