<svg width="19" height="20" viewBox="0 0 19 20" fill="none" xmlns="http://www.w3.org/2000/svg">
<path fill-rule="evenodd" clip-rule="evenodd" d="M7.69651 0.0441606C7.55575 0.106427 7.42852 0.238569 7.37448 0.378622C7.34657 0.450935 7.33374 1.72764 7.33374 4.43523V8.38631L5.99998 8.39707C4.72143 8.40738 4.66183 8.41101 4.56082 8.48513C4.30986 8.66915 4.21661 8.96163 4.32804 9.21493C4.35951 9.28649 5.37659 10.4556 6.58819 11.813C8.85683 14.3546 8.88932 14.387 9.16667 14.387C9.44401 14.387 9.47651 14.3546 11.7451 11.813C12.9567 10.4556 13.9738 9.28649 14.0053 9.21493C14.1167 8.96163 14.0235 8.66915 13.7725 8.48513C13.6715 8.41101 13.6119 8.40738 12.3339 8.39707L11.0006 8.38631L10.9905 4.3793C10.9806 0.398415 10.98 0.371612 10.9018 0.268784C10.8585 0.211841 10.7756 0.130494 10.7176 0.0879832C10.6162 0.0136085 10.5595 0.0103471 9.21165 0.00209993C8.10193 -0.00472275 7.78727 0.00401178 7.69651 0.0441606ZM0.0105393 15.746L0.0211169 18.3045L0.114596 18.4909C0.233775 18.7287 0.467206 18.9579 0.709458 19.0749L0.899395 19.1667H9.16667H17.4339L17.6239 19.0749C17.8661 18.9579 18.0996 18.7287 18.2187 18.4909L18.3122 18.3045L18.3228 15.746L18.3333 13.1874H17.1104H15.8874V14.9868V16.7862H9.16667H2.44593V14.9868V13.1874H1.22295H0L0.0105393 15.746Z" fill="#225B6A"/>
</svg>
