<svg width="32" height="32" viewBox="0 0 32 32" fill="none" xmlns="http://www.w3.org/2000/svg">
<path fill-rule="evenodd" clip-rule="evenodd" d="M14.4803 0.0388474C9.46977 0.559743 5.0858 3.28137 2.41821 7.52724C-0.67462 12.45 -0.811382 18.865 2.06939 23.8913C3.58567 26.5368 5.8098 28.7121 8.43495 30.1168C10.6686 31.3121 13.1344 31.9713 15.4498 31.9924L16.2948 32L16.3107 25.7854L16.3267 19.5709H14.6051H12.8835V17.5682V15.5655L14.5891 15.5489L16.2948 15.5322L16.3302 13.4346C16.3624 11.5307 16.3784 11.2907 16.5036 10.8361C16.9803 9.10608 18.1302 7.95516 19.8625 7.47446C20.313 7.34942 20.5107 7.33527 21.8341 7.33345C22.6431 7.33232 23.5796 7.3548 23.9153 7.38335L24.5255 7.43526V9.24027V11.0453L23.039 11.0662C21.561 11.0869 21.5506 11.088 21.2293 11.2572C20.5397 11.6205 20.4571 11.9116 20.4571 13.9768V15.5635H22.4287C23.5131 15.5635 24.4002 15.5847 24.4001 15.6105C24.4 15.6363 24.2873 16.5151 24.1497 17.5633C24.0122 18.6114 23.8996 19.492 23.8996 19.52C23.8996 19.548 23.125 19.5709 22.1784 19.5709H20.4571V25.488C20.4571 28.7424 20.468 31.4052 20.4814 31.4052C20.6008 31.4052 22.0906 30.8416 22.6546 30.583C24.5371 29.7202 25.9988 28.6811 27.4997 27.1391C28.8055 25.7975 29.6161 24.6376 30.4477 22.9208C31.187 21.3944 31.6913 19.6924 31.9227 17.9429C32.0257 17.1642 32.0257 14.7542 31.9228 14.0295C31.3966 10.327 29.8683 7.21216 27.3339 4.67675C24.8513 2.19318 21.7568 0.644399 18.2351 0.122752C17.4673 0.00897995 15.245 -0.0406112 14.4803 0.0388474Z" fill="#DBBAA7"/>
</svg>
