<svg width="17" height="10" viewBox="0 0 17 10" fill="none" xmlns="http://www.w3.org/2000/svg">
<path d="M1.14501 9.94577C0.853972 9.94577 0.562932 9.83925 0.333164 9.61098C-0.111055 9.16967 -0.111055 8.43922 0.333164 7.99791L5.23484 3.12827C5.47993 2.88478 5.8016 2.76304 6.15391 2.79348C6.49091 2.82391 6.79726 3.00652 6.9964 3.29566L8.66605 5.79135L14.1039 0.389089C14.5481 -0.0522225 15.2834 -0.0522225 15.7276 0.389089C16.1718 0.830401 16.1718 1.56085 15.7276 2.00216L9.29408 8.39357C9.04899 8.63705 8.72732 8.75879 8.37501 8.72836C8.03801 8.69792 7.73165 8.51531 7.53252 8.22618L5.86287 5.73048L1.95686 9.61098C1.72709 9.83925 1.43605 9.94577 1.14501 9.94577Z" fill="#4EAF51"/>
<path d="M14.9292 5.38037C14.3012 5.38037 13.7804 4.86297 13.7804 4.23905V2.33685H11.8656C11.2376 2.33685 10.7168 1.81945 10.7168 1.19552C10.7168 0.571599 11.2376 0.0541992 11.8656 0.0541992H14.9292C15.5572 0.0541992 16.0781 0.571599 16.0781 1.19552V4.23905C16.0781 4.86297 15.5572 5.38037 14.9292 5.38037Z" fill="#4EAF51"/>
</svg>
