<svg width="14" height="15" viewBox="0 0 14 15" fill="none" xmlns="http://www.w3.org/2000/svg">
<path fill-rule="evenodd" clip-rule="evenodd" d="M6.64179 0.558353C6.4009 0.6533 0.445508 4.26686 0.307699 4.40174C0.238341 4.46962 0.143496 4.60695 0.0969324 4.70689L0.012269 4.88865L0.0036762 8.97903C-0.00572725 13.4417 -0.0115314 13.2858 0.178191 13.6628C0.288114 13.8812 0.614738 14.2101 0.831633 14.3207C1.17865 14.4978 1.29243 14.5075 2.90853 14.4972L4.38973 14.4878L4.57086 14.4023C4.80112 14.2935 4.97502 14.1184 5.08299 13.8866L5.16795 13.7042L5.18416 12.0496C5.19992 10.4424 5.20229 10.3923 5.26724 10.3048C5.30401 10.2552 5.37437 10.1844 5.42363 10.1474C5.51101 10.0817 5.54889 10.08 7 10.08C8.45111 10.08 8.48899 10.0817 8.57637 10.1474C8.62563 10.1844 8.69599 10.2552 8.73276 10.3048C8.79771 10.3923 8.80008 10.4424 8.81584 12.0496L8.83205 13.7042L8.91701 13.8866C9.02498 14.1184 9.19888 14.2935 9.42914 14.4023L9.61027 14.4878L11.0915 14.4972C12.7076 14.5075 12.8213 14.4978 13.1684 14.3207C13.3853 14.2101 13.7119 13.8812 13.8218 13.6628C14.0115 13.2858 14.0057 13.4417 13.9963 8.97903L13.9877 4.88865L13.9028 4.70627C13.8561 4.60593 13.7654 4.47102 13.7012 4.40644C13.561 4.26523 7.47183 0.579641 7.29883 0.531254C7.11696 0.480385 6.80723 0.493151 6.64179 0.558353Z" fill="#DBBAA7"/>
</svg>
