<svg width="25" height="30" viewBox="0 0 25 30" fill="none" xmlns="http://www.w3.org/2000/svg">
<path d="M24.75 15C24.7509 15.3819 24.653 15.7577 24.4657 16.0906C24.2784 16.4235 24.0082 16.7023 23.6812 16.8998L3.42 29.2945C3.0784 29.5037 2.68716 29.6179 2.28667 29.6253C1.88619 29.6327 1.49098 29.5331 1.14188 29.3367C0.796092 29.1434 0.508045 28.8614 0.307355 28.5198C0.106666 28.1783 0.000577769 27.7894 0 27.3933V2.60669C0.000577769 2.21053 0.106666 1.82167 0.307355 1.4801C0.508045 1.13853 0.796092 0.856585 1.14188 0.663251C1.49098 0.466866 1.88619 0.367237 2.28667 0.374653C2.68716 0.38207 3.0784 0.496263 3.42 0.705438L23.6812 13.1001C24.0082 13.2977 24.2784 13.5764 24.4657 13.9094C24.653 14.2423 24.7509 14.618 24.75 15Z" fill="#787878"/>
</svg>
