<svg width="36" height="35" viewBox="0 0 36 35" fill="none" xmlns="http://www.w3.org/2000/svg">
<path d="M0.303586 14.1058L0.786453 13.9761C0.786466 13.9761 0.786479 13.9762 0.786499 13.9763C0.786953 13.9797 0.791102 14.0105 0.885118 14.1306C0.991535 14.2665 1.18371 14.4799 1.54359 14.8496C2.25894 15.5845 3.5803 16.8801 6.05417 19.297L8.76847 21.9488L8.95643 22.1324L8.91179 22.3914L7.96514 27.882L7.04182 33.2374L7.12676 33.4598L7.12677 33.4599C7.17637 33.5897 7.28736 33.7366 7.37664 33.8047C7.47525 33.8799 7.50369 33.8888 7.52214 33.8939C7.55696 33.9035 7.62393 33.9129 7.82285 33.9108C7.92261 33.9097 7.96139 33.9079 8.04318 33.8839C8.14771 33.8533 8.31761 33.7857 8.6501 33.6255C9.31087 33.3071 10.5096 32.6749 12.9046 31.41C14.2348 30.7075 15.4516 30.0687 16.3404 29.6053C16.7847 29.3737 17.1478 29.1856 17.4025 29.0551C17.5296 28.99 17.6312 28.9385 17.7029 28.9029C17.7382 28.8854 17.7691 28.8703 17.7931 28.8591C17.8044 28.8537 17.8188 28.8471 17.8333 28.841C17.8399 28.8383 17.8528 28.8329 17.8686 28.8274C17.8762 28.8248 17.8908 28.8198 17.9092 28.815L17.9102 28.8148C17.9209 28.812 17.9715 28.7986 18.0366 28.7986C18.1017 28.7986 18.1522 28.8119 18.163 28.8148L18.1639 28.815C18.1825 28.8198 18.197 28.8248 18.2047 28.8274C18.2205 28.8329 18.2335 28.8383 18.2401 28.8411C18.2546 28.8472 18.269 28.8538 18.2803 28.8591C18.3043 28.8704 18.3351 28.8854 18.3705 28.903C18.4421 28.9386 18.5435 28.9901 18.6704 29.0552C18.9248 29.1856 19.2874 29.3738 19.731 29.6053C20.6186 30.0685 21.8336 30.7072 23.1618 31.4095L22.9281 31.8515L23.1618 31.4095C25.565 32.6803 26.7612 33.3122 27.4187 33.629C27.7495 33.7884 27.9169 33.8544 28.0197 33.8841C28.1 33.9073 28.1384 33.9089 28.2446 33.9102C28.5042 33.9132 28.5999 33.8775 28.6503 33.8462C28.7032 33.8133 28.7823 33.7377 28.9045 33.4937L29.0201 33.263L28.0986 27.908L27.1493 22.3912L27.1047 22.1324L27.2926 21.9488L29.9669 19.3362C32.4564 16.9042 33.7875 15.599 34.5086 14.8575C34.8713 14.4846 35.0653 14.2688 35.1727 14.1312C35.2675 14.0097 35.272 13.9779 35.2725 13.9741C35.2726 13.9739 35.2726 13.9738 35.2726 13.9737L0.303586 14.1058ZM0.303586 14.1058L0.786453 13.9761C0.689405 13.6149 0.944876 13.1741 1.32136 13.0785C1.32046 13.0787 1.32207 13.0784 1.32669 13.0776C1.33983 13.0751 1.37733 13.0681 1.45086 13.0557C1.53883 13.0409 1.66014 13.0213 1.81175 12.9974C2.11466 12.9497 2.5338 12.8856 3.03913 12.8097C4.04953 12.6579 5.40151 12.459 6.85098 12.2499C8.30208 12.0406 9.62482 11.8449 10.5871 11.6983M0.303586 14.1058L10.5871 11.6983M23.6466 11.4415L23.53 11.2067L21.0442 6.20369C20.9294 5.9727 20.8197 5.7519 20.7149 5.54086C19.5372 3.16935 18.9709 2.029 18.6108 1.47217C18.4142 1.16812 18.3363 1.1343 18.3332 1.13297L18.3332 1.13295L18.3331 1.13293C18.3325 1.13268 18.3306 1.13182 18.3248 1.13067C18.3178 1.12928 18.3047 1.12736 18.2807 1.12618C18.2418 1.12427 18.2096 1.12479 18.1621 1.12555C18.1283 1.12609 18.0868 1.12676 18.0296 1.12676C17.7699 1.12676 17.69 1.15782 17.6055 1.21226C17.5973 1.22129 17.5681 1.25463 17.5135 1.33793C17.4268 1.47006 17.3018 1.68672 17.1092 2.04793C16.7258 2.76714 16.1022 4.00613 15.0272 6.16235C13.6863 8.85188 12.5577 11.1132 12.5153 11.1926L12.5153 11.1926C12.5151 11.1931 12.5148 11.1936 12.5145 11.1941L23.6466 11.4415ZM23.6466 11.4415L23.9061 11.479M23.6466 11.4415L23.9061 11.479M23.9061 11.479L29.2328 12.25C30.6969 12.462 32.0579 12.6629 33.071 12.8159M23.9061 11.479L33.071 12.8159M10.5871 11.6983C11.0681 11.625 11.4603 11.5637 11.7339 11.519M10.5871 11.6983L11.7339 11.519M11.7339 11.519C11.8702 11.4968 11.9797 11.4782 12.0568 11.464M11.7339 11.519L12.0568 11.464M12.0568 11.464C12.0945 11.4571 12.1294 11.4504 12.1574 11.4442M12.0568 11.464L12.1574 11.4442M12.1574 11.4442C12.17 11.4414 12.19 11.4369 12.2109 11.4308M12.1574 11.4442L12.2109 11.4308M12.2109 11.4308C12.2198 11.4282 12.2419 11.4217 12.268 11.4109M12.2109 11.4308L12.268 11.4109M12.268 11.4109C12.2803 11.4058 12.3068 11.3944 12.3378 11.3756M12.268 11.4109L12.3378 11.3756M12.3378 11.3756C12.3382 11.3754 12.3387 11.3751 12.3393 11.3748M12.3378 11.3756L12.3393 11.3748M12.3393 11.3748C12.3565 11.3644 12.4493 11.3089 12.5144 11.1942L12.3393 11.3748ZM34.77 13.0827C35.1098 13.1767 35.3663 13.617 35.2726 13.9737L34.77 13.0827ZM34.77 13.0827C34.7734 13.0837 34.7702 13.0831 34.7575 13.0808M34.77 13.0827L34.7575 13.0808M33.071 12.8159C33.5777 12.8924 33.9966 12.9567 34.2976 13.0045M33.071 12.8159L34.2976 13.0045M34.2976 13.0045C34.4483 13.0283 34.5681 13.0478 34.6541 13.0625M34.2976 13.0045L34.6541 13.0625M34.6541 13.0625C34.7087 13.0718 34.7411 13.0778 34.7575 13.0808M34.6541 13.0625L34.7575 13.0808" stroke="#DBBAA7"/>
</svg>
