<svg width="36" height="35" viewBox="0 0 36 35" fill="none" xmlns="http://www.w3.org/2000/svg">
<path fill-rule="evenodd" clip-rule="evenodd" d="M17.3185 0.80254C17.088 0.955197 16.7274 1.63137 14.5797 5.93926C13.2194 8.66778 12.0944 10.9214 12.0797 10.9472C12.0651 10.9732 9.67999 11.3367 6.7796 11.755C3.87921 12.1735 1.36765 12.5509 1.19835 12.5939C0.555774 12.757 0.133039 13.4712 0.303586 14.1058C0.396008 14.4497 0.762024 14.8257 5.70476 19.6547L8.41905 22.3064L7.47241 27.7971L6.52577 33.2877L6.65968 33.6382C6.74015 33.8489 6.90523 34.074 7.07343 34.2023C7.31007 34.3828 7.42679 34.415 7.8282 34.4107C8.29749 34.4057 8.35945 34.3758 13.1381 31.8521C15.7974 30.4477 18.0018 29.2986 18.0366 29.2986C18.0716 29.2986 20.2726 30.4475 22.9281 31.8515C27.7226 34.3868 27.7595 34.4045 28.2387 34.4101C28.8298 34.4171 29.0787 34.2621 29.3516 33.7176L29.5407 33.34L28.5914 27.8232L27.642 22.3064L30.3163 19.6939C35.2901 14.8348 35.6644 14.45 35.7562 14.1008C35.9184 13.4833 35.5104 12.7672 34.9009 12.6002C34.7526 12.5595 32.2341 12.1793 29.3044 11.7552L23.9777 10.9842L21.4919 5.98121C18.7051 0.372385 18.8696 0.626759 18.0296 0.626759C17.6982 0.626759 17.5159 0.671837 17.3185 0.80254Z" fill="#DBBAA7"/>
</svg>
