<svg width="22" height="8" viewBox="0 0 22 8" fill="none" xmlns="http://www.w3.org/2000/svg">
<path d="M17.0787 6.96624C16.6346 6.52215 16.6322 5.78803 17.0733 5.34685L18.4184 4.00179L17.0645 2.64786C16.6204 2.20378 16.618 1.46965 17.0592 1.02847C17.5004 0.587293 18.2345 0.589702 18.6786 1.03379L20.8448 3.20006C21.2889 3.64415 21.2913 4.37827 20.8502 4.81945L18.6981 6.97155C18.2569 7.41274 17.5228 7.41033 17.0787 6.96624Z" fill="#555770"/>
<path fill-rule="evenodd" clip-rule="evenodd" d="M0 4.22134C0 3.61382 0.492487 3.12134 1.1 3.12134H18.1C18.7075 3.12134 19.2 3.61382 19.2 4.22134C19.2 4.82885 18.7075 5.32134 18.1 5.32134H1.1C0.492487 5.32134 0 4.82885 0 4.22134Z" fill="#555770"/>
</svg>
