<svg width="24" height="23" viewBox="0 0 24 23" fill="none" xmlns="http://www.w3.org/2000/svg">
<path fill-rule="evenodd" clip-rule="evenodd" d="M11.1757 0.88285C10.2051 1.13743 9.49332 1.65151 8.96649 2.47847C8.43671 3.31004 0.389868 17.3135 0.270524 17.6115C-0.0932728 18.52 -0.0901791 19.3977 0.279993 20.3221C0.703227 21.3792 1.61091 22.1624 2.74079 22.4456C3.10941 22.5379 3.26602 22.5396 11.9604 22.5403C21.4106 22.541 21.0793 22.5486 21.6549 22.3196C22.5787 21.9521 23.374 21.1707 23.7304 20.2805C24.0745 19.421 24.081 18.4432 23.7481 17.619C23.6373 17.3447 15.2672 2.80707 14.9499 2.33785C14.6007 1.82138 14.0332 1.34494 13.4683 1.09416C12.7885 0.792287 11.8506 0.70585 11.1757 0.88285ZM12.5028 7.28518C12.9797 7.4844 13.269 7.91616 13.3012 8.47669C13.3193 8.79188 13.0108 14.5699 12.9568 14.9269C12.9181 15.1826 12.7003 15.4565 12.4305 15.5886C11.9393 15.8291 11.3626 15.6489 11.121 15.1793C11.017 14.9772 11.0049 14.848 10.8732 12.5313C10.7971 11.1917 10.7109 9.77124 10.6817 9.37477C10.61 8.39893 10.6442 8.17163 10.9261 7.74938C11.256 7.25532 11.9454 7.0523 12.5028 7.28518ZM12.5418 16.7746C13.0031 16.9734 13.2786 17.4269 13.2825 17.9941C13.2863 18.543 13.0616 18.9047 12.5481 19.1763C12.2626 19.3273 11.7294 19.326 11.4361 19.1735C11.1649 19.0325 10.99 18.8668 10.8343 18.6035C10.7255 18.4196 10.7095 18.3414 10.7095 17.9941C10.7095 17.5348 10.7872 17.3305 11.0688 17.0489C11.4657 16.652 12.0184 16.549 12.5418 16.7746Z" fill="#225B6A"/>
</svg>
