<svg width="32" height="32" viewBox="0 0 32 32" fill="none" xmlns="http://www.w3.org/2000/svg">
<path fill-rule="evenodd" clip-rule="evenodd" d="M14.4808 0.0388523C9.47393 0.5595 5.08584 3.28435 2.42019 7.52819C-1.35889 13.5447 -0.653377 21.4929 4.12442 26.7274C6.76885 29.6246 10.076 31.3567 14.0421 31.9217C14.7825 32.0271 17.2431 32.0258 18.0162 31.9195C21.6383 31.4215 24.8823 29.815 27.3495 27.2975C28.1592 26.4712 28.3317 26.2736 28.8688 25.5573C30.4693 23.4227 31.5171 20.8205 31.9215 17.9765C32.0262 17.2396 32.0262 14.7677 31.9214 14.0312C31.6517 12.1353 31.1613 10.5199 30.3745 8.93564C29.5408 7.25709 28.6853 6.06043 27.3537 4.71021C24.8836 2.20548 21.7908 0.649552 18.2352 0.122767C17.4675 0.00898108 15.2455 -0.0406163 14.4808 0.0388523ZM19.4869 9.05262C23.341 9.19264 24.1638 9.33993 24.8902 10.0198C25.4884 10.5797 25.7362 11.3261 25.91 13.0919C26.0171 14.1798 26.0182 17.6615 25.9118 18.7906C25.7514 20.4931 25.5943 21.1402 25.221 21.6373C24.7011 22.3298 24.1847 22.589 23.0376 22.7331C19.9526 23.121 11.0004 23.0837 8.61458 22.6732C7.391 22.4626 6.6164 21.7325 6.35548 20.544C6.05646 19.1817 5.92572 16.3042 6.0624 14.0938C6.22137 11.523 6.40611 10.7878 7.06913 10.0863C7.63764 9.48484 8.17699 9.31576 9.9741 9.1758C12.1766 9.00415 16.5832 8.94716 19.4869 9.05262ZM14.0108 16.0038V19.0122L14.3134 18.8388C18.1587 16.6344 19.2011 16.0298 19.2011 16.0038C19.2011 15.9778 18.1587 15.3732 14.3134 13.1689L14.0108 12.9954V16.0038Z" fill="#DBBAA7"/>
</svg>
