<svg width="28" height="29" viewBox="0 0 28 29" fill="none" xmlns="http://www.w3.org/2000/svg">
<path fill-rule="evenodd" clip-rule="evenodd" d="M13.2793 0.0343718C11.0859 0.338089 9.28375 1.87144 8.59699 4.01834C8.37312 4.71834 8.33695 6.11979 8.52281 6.89799C8.76308 7.90435 9.19836 8.70969 9.91747 9.47847C10.6843 10.2982 11.887 10.9592 12.9791 11.161C13.5129 11.2597 14.6053 11.2485 15.1216 11.139C17.2664 10.6843 18.9696 9.03159 19.4725 6.91717C19.592 6.41462 19.6086 6.18871 19.5821 5.43481C19.5447 4.36983 19.4477 3.97539 19.0075 3.09599C18.2487 1.5801 16.8918 0.513271 15.2421 0.135501C14.6833 0.00755768 13.8011 -0.0379011 13.2793 0.0343718ZM10.1587 12.6858C9.60585 12.7349 8.56154 12.9192 8.45172 12.9871C8.42326 13.0047 8.4 14.2314 8.4 15.7133V18.4074L8.61669 18.5103C9.01738 18.7004 9.31287 19.004 9.53351 19.4524C9.96293 20.325 9.77813 21.2791 9.05355 21.9306C8.02579 22.8546 6.40291 22.5225 5.78618 21.2619C5.63624 20.9555 5.60303 20.7987 5.60165 20.3909C5.6002 19.9597 5.62886 19.8349 5.81708 19.4524C6.03772 19.004 6.3332 18.7004 6.7339 18.5103L6.95059 18.4074V15.9416V13.4758L6.7924 13.5358C6.13918 13.7842 5.0124 14.4509 4.28235 15.021C2.16424 16.6748 0.737421 18.9691 0.150936 21.664C0.0193694 22.2683 0.00494127 22.5232 0.00256951 24.2772L0 26.2207L0.176565 26.5974C0.423097 27.1235 0.885788 27.5947 1.40817 27.8519L1.84194 28.0654H14H26.1581L26.5918 27.8519C27.1142 27.5947 27.5769 27.1235 27.8234 26.5974L28 26.2207L27.9974 24.2772C27.9951 22.5187 27.9808 22.2693 27.8479 21.6584C27.1 18.2198 24.9234 15.3804 21.8581 13.8446C21.2563 13.5431 20.1842 13.1242 19.8141 13.0461L19.6 13.0008V14.9747V16.9486L19.9129 17.0267C20.7068 17.2248 21.5809 17.9451 22.0036 18.7496C22.4013 19.5064 22.4305 19.7749 22.4318 22.6795L22.4329 25.2654H21.0142H19.5954L19.6142 24.5901L19.6329 23.9148L20.3447 23.8961L21.0565 23.8773L21.0365 21.885L21.0165 19.8927L20.7991 19.4513C20.4317 18.7056 19.7531 18.2822 18.924 18.2815C18.3055 18.2811 17.9218 18.4443 17.4536 18.9072C16.8436 19.5102 16.8329 19.562 16.8329 21.9171V23.8819H17.5247H18.2165V24.5736V25.2654H16.7939H15.3712L15.402 22.5478C15.4222 20.7649 15.4596 19.7288 15.5106 19.5355C15.8114 18.3962 16.6655 17.4729 17.7772 17.0851L18.2182 16.9313L18.2009 14.823L18.1835 12.7148L17.5099 12.6636L16.8364 12.6123L15.4182 13.6764L14 14.7405L12.5843 13.6782C11.3884 12.781 11.1352 12.6174 10.9537 12.6251C10.8355 12.6302 10.4777 12.6576 10.1587 12.6858Z" fill="#DBBAA7"/>
</svg>
