<svg width="27" height="29" viewBox="0 0 27 29" fill="none" xmlns="http://www.w3.org/2000/svg">
<path fill-rule="evenodd" clip-rule="evenodd" d="M12.3161 0.0358712C10.7648 0.175573 9.28081 0.84638 8.11063 1.93692C7.01971 2.95361 6.26473 4.31254 5.93471 5.85348C5.79859 6.48928 5.8324 8.05836 6.00043 8.90412C6.4966 11.4004 7.85553 13.9664 9.48964 15.4925C11.8024 17.6524 14.2948 17.6175 16.6089 15.3928C18.1851 13.8775 19.4967 11.3841 19.9875 8.96985C20.5114 6.39239 19.8821 4.02634 18.1992 2.24661C17.0537 1.03506 15.3686 0.187094 13.8587 0.0623131C13.61 0.0417891 13.2932 0.015536 13.1547 0.00401489C13.0162 -0.0075692 12.6388 0.00678503 12.3161 0.0358712ZM7.01152 16.0558C4.05519 16.5911 1.48207 18.7893 0.450585 21.6608C0.116661 22.5903 -0.00056457 23.3261 2.04279e-06 24.4888C0.000379785 25.2979 0.0273883 25.6655 0.110618 25.9956C0.460721 27.3845 1.39337 28.282 2.89275 28.6734C4.10096 28.9888 4.44754 29 12.9974 29C21.5472 29 21.8937 28.9888 23.102 28.6734C25.077 28.1579 26.0193 26.833 26.0272 24.5598C26.0317 23.2962 25.7433 22.0012 25.2065 20.8743C24.7547 19.9259 24.2622 19.2281 23.5112 18.4718C22.2371 17.1891 20.6534 16.3519 18.9336 16.0519C18.2165 15.9269 18.2371 15.9228 18.1606 16.2071C17.9274 17.0732 15.8989 19.1485 13.3908 21.0869L12.9974 21.391L12.6039 21.0854C10.0449 19.0984 8.06832 17.0768 7.83412 16.2071C7.75725 15.9216 7.75486 15.9212 7.01152 16.0558ZM20.2878 21.385C20.338 21.4352 20.3633 21.7096 20.3633 22.2034V22.9463H21.1062C21.6 22.9463 21.8744 22.9716 21.9247 23.0219C22.0291 23.1263 22.0291 24.5921 21.9247 24.6965C21.8744 24.7467 21.6 24.7721 21.1062 24.7721H20.3633V25.5149C20.3633 26.0088 20.338 26.2832 20.2878 26.3334C20.237 26.3842 19.9507 26.4089 19.4131 26.4089C18.7425 26.4089 18.6078 26.393 18.5758 26.3093C18.5548 26.2546 18.5376 25.8863 18.5376 25.4909V24.7721H17.8187C17.4234 24.7721 17.0551 24.7549 17.0003 24.7338C16.8515 24.6767 16.8515 23.0416 17.0003 22.9845C17.0551 22.9635 17.4234 22.9463 17.8187 22.9463H18.5376V22.2275C18.5376 21.8321 18.5548 21.4638 18.5758 21.409C18.6078 21.3254 18.7425 21.3094 19.4131 21.3094C19.9507 21.3094 20.237 21.3342 20.2878 21.385Z" fill="#DBBAA7"/>
</svg>
