<svg width="32" height="30" viewBox="0 0 32 30" fill="none" xmlns="http://www.w3.org/2000/svg">
<path fill-rule="evenodd" clip-rule="evenodd" d="M15.531 0.114178C15.2613 0.237299 0.656945 10.8314 0.321975 11.147C0.210861 11.2516 0.0878032 11.4347 0.0485348 11.5537C-0.0967207 11.9938 0.0956193 12.659 0.471358 13.0157C0.82371 13.35 0.987162 13.3785 2.55321 13.3785H3.99244L4.00901 20.9647L4.02565 28.5511L4.2016 28.8169C4.32347 29.0011 4.47736 29.1293 4.70184 29.2338L5.02611 29.3848H16H26.9739L27.2927 29.2363C27.6273 29.0805 27.8131 28.8719 27.9335 28.5169C27.9864 28.3611 28.0056 26.3121 28.0056 20.8414V13.3785H29.4458C31.013 13.3785 31.1763 13.3501 31.5286 13.0157C31.9044 12.659 32.0967 11.9938 31.9515 11.5537C31.9122 11.4347 31.7891 11.2516 31.678 11.147C31.3431 10.8314 16.7387 0.237299 16.469 0.114178C16.3314 0.0513365 16.1204 0 16 0C15.8796 0 15.6686 0.0513365 15.531 0.114178ZM17.5249 10.8852C20.0188 11.3818 22.057 12.9489 23.1625 15.2199C23.7424 16.4111 23.9578 17.3579 23.9602 18.7248C23.9639 20.8384 23.2087 22.7124 21.7412 24.2317C18.5723 27.5123 13.4277 27.5123 10.2588 24.2317C8.79131 22.7124 8.03615 20.8384 8.03977 18.7248C8.04215 17.3579 8.25763 16.4111 8.83752 15.2199C10.4233 11.9625 13.9924 10.1816 17.5249 10.8852ZM13.9991 14.6916V16.6926H11.9981H9.99719V18.6935V20.6944H11.9981H13.9991V22.6954V24.6963H16H18.0009V22.6954V20.6944H20.0019H22.0028V18.6935V16.6926H20.0019H18.0009V14.6916V12.6907H16H13.9991V14.6916Z" fill="#DBBAA7"/>
</svg>
