<svg width="32" height="20" viewBox="0 0 32 20" fill="none" xmlns="http://www.w3.org/2000/svg">
<path fill-rule="evenodd" clip-rule="evenodd" d="M3.2 0.0967777C2.9554 0.202711 2.631 0.478912 2.52787 0.668978C2.42887 0.851445 0 11.5302 0 11.7831C0 12.1224 0.244267 12.5738 0.530267 12.763C0.699 12.8747 1.1576 13.0134 1.97213 13.1993C3.0422 13.4434 3.1972 13.4639 3.45967 13.3955C3.8472 13.2946 4.10847 13.1006 4.2618 12.8C4.46307 12.4056 6.87433 1.78111 6.82347 1.51304C6.76793 1.22044 6.6876 1.06398 6.4752 0.834778C6.22193 0.561445 6.17927 0.545445 4.93167 0.254845C3.67707 -0.0372888 3.53873 -0.0499556 3.2 0.0967777ZM27.9 0.057111C27.79 0.0871776 27.28 0.208511 26.7667 0.326845C25.8792 0.531378 25.8197 0.555511 25.5567 0.817378C25.0085 1.36338 24.9561 0.95571 26.3672 7.11684C27.0521 10.107 27.6689 12.6643 27.738 12.7997C27.8915 13.1006 28.1527 13.2945 28.5403 13.3955C28.8028 13.4639 28.9578 13.4434 30.0279 13.1993C30.8424 13.0134 31.301 12.8747 31.4697 12.763C31.7557 12.5738 32 12.1224 32 11.7831C32 11.5302 29.5711 0.851445 29.4721 0.668978C29.3655 0.472512 29.041 0.200778 28.7855 0.0940444C28.5186 -0.0174223 28.2189 -0.029889 27.9 0.057111ZM15.9 1.37731C15.7167 1.44104 15.4317 1.58665 15.2667 1.70105C14.8241 2.00771 13.8122 3.06538 12.6617 4.42385C12.1027 5.08385 11.2827 5.99391 10.8394 6.44618L10.0333 7.26858L10.2773 7.48138C11.3951 8.45651 12.6943 8.27171 14.8333 6.83324C15.6635 6.27498 16.1416 6.10511 16.9 6.09878C17.5484 6.09338 17.9931 6.20444 18.5333 6.50671C18.7154 6.60858 20.0817 7.91891 22.0086 9.83958C24.8037 12.6256 25.2021 12.9988 25.3354 12.9565C25.7379 12.8288 26.6 12.3864 26.6 12.3076C26.6 12.2234 24.7014 3.87865 24.63 3.64898C24.6002 3.55298 24.5503 3.55938 24.1873 3.70604C23.6376 3.92805 22.9091 3.97671 22.3333 3.82984C21.8879 3.71624 21.6261 3.57984 19.5667 2.38878C18.0541 1.51398 17.4197 1.26164 16.7333 1.26158C16.4309 1.26158 16.1017 1.30731 15.9 1.37731ZM6.87673 5.77384C6.46693 7.56138 5.98413 9.65384 5.80387 10.4238L5.47613 11.8238L9.1214 15.4436C11.1263 17.4344 12.8567 19.1125 12.9667 19.1728C13.0768 19.233 13.3203 19.283 13.5085 19.284C14.3569 19.2883 14.9049 18.4055 14.5389 17.6238C14.4645 17.465 13.9935 16.9398 13.3737 16.3246C12.2594 15.2187 12.1773 15.0799 12.4667 14.7905C12.7771 14.4801 12.8168 14.5103 15.132 16.82C16.3647 18.0498 17.3863 19.0156 17.5 19.0589C17.61 19.1007 17.846 19.1341 18.0244 19.1331C18.7991 19.1289 19.3453 18.2932 19.0624 17.5448C19.0234 17.4416 18.0934 16.4556 16.9957 15.3536C14.8672 13.2168 14.8273 13.1632 15.1333 12.8572C15.4494 12.5411 15.4607 12.55 18.1337 15.231C19.5085 16.61 20.7667 17.825 20.9297 17.931C21.6365 18.3908 22.6077 17.9914 22.7142 17.1972C22.8012 16.5487 22.8758 16.6436 20.0617 13.821C17.3289 11.08 17.3302 11.0817 17.5705 10.7387C17.6455 10.6316 17.7417 10.5905 17.9175 10.5905C18.1485 10.5905 18.2861 10.7153 20.6304 13.0512C22.7155 15.1288 23.1431 15.5245 23.3769 15.5932C23.9134 15.7506 24.4567 15.507 24.7167 14.9925C24.9277 14.5748 24.9131 14.2165 24.6704 13.8519C24.5625 13.6898 23.0845 12.1712 21.3862 10.4774C17.9765 7.07664 17.9559 7.05998 17.0919 7.00298C16.5073 6.96445 16.0649 7.11744 15.297 7.62404C13.7309 8.65711 12.6869 9.03678 11.5851 8.97398C11.0547 8.94371 10.9259 8.90898 10.4257 8.66105C10.0111 8.45564 9.7406 8.25985 9.39813 7.91738C8.72987 7.24911 8.7216 7.27944 9.8886 6.11244C10.4139 5.58704 11.2888 4.63218 11.8326 3.99051C12.3765 3.34884 12.8818 2.75638 12.9557 2.67384L13.0899 2.52384H10.3559H7.62187L6.87673 5.77384Z" fill="#DBBAA7"/>
</svg>
