<svg width="32" height="31" viewBox="0 0 32 31" fill="none" xmlns="http://www.w3.org/2000/svg">
<path fill-rule="evenodd" clip-rule="evenodd" d="M11.0388 7.91275C9.43233 9.98932 8.79533 11.2385 7.74731 14.3674C7.06948 16.3909 6.82588 17.3217 6.54273 18.971C6.35809 20.0463 6.28284 20.3234 6.02608 20.8726C5.73269 21.5001 5.72557 21.5331 5.72557 22.2622C5.72557 22.9247 5.7472 23.0553 5.91733 23.4182C6.18469 23.9887 6.74778 24.5609 7.31807 24.8417C7.75506 25.0568 7.83358 25.0717 8.53502 25.0717C9.23645 25.0717 9.31497 25.0568 9.75197 24.8417C10.3227 24.5607 10.8858 23.9882 11.1521 23.4182C11.3218 23.0549 11.3432 22.9241 11.3438 22.2505L11.3445 21.492L10.9765 20.7867C10.7742 20.3988 10.5586 19.9079 10.4974 19.696C10.2542 18.8523 10.1788 16.6508 10.3138 14.3318C10.5006 11.1204 10.7702 9.51207 11.4043 7.82363C11.5366 7.4717 11.6353 7.18372 11.6237 7.18372C11.6122 7.18372 11.3489 7.51174 11.0388 7.91275ZM0.563453 18.441C0.431445 18.5299 0.250645 18.7107 0.161738 18.8427C0.00810814 19.0706 0 19.148 0 20.388V21.6932H1.74257C3.36955 21.6932 3.48513 21.6848 3.48513 21.5659C3.48513 21.3156 3.70925 20.585 3.94858 20.0548C4.09496 19.7306 4.23159 19.269 4.29105 18.8974L4.39006 18.2792H2.59671C0.849234 18.2792 0.797313 18.2834 0.563453 18.441ZM12.5675 18.6171C12.5865 18.8186 12.7298 19.2255 12.9224 19.6252C13.3002 20.4091 13.4854 20.9219 13.5527 21.3705L13.601 21.6932H15.643H17.6851L17.7631 21.2733C17.8061 21.0424 17.9274 20.6503 18.0328 20.402C18.3712 19.6047 18.4786 19.2499 18.5299 18.7593L18.5802 18.2792H15.5578H12.5355L12.5675 18.6171ZM26.8178 18.6917C26.8499 18.9637 26.966 19.2975 27.1591 19.6725C27.4966 20.3281 27.7086 20.91 27.7777 21.3705L27.8261 21.6932H29.8451H31.8641V20.388C31.8641 19.148 31.856 19.0706 31.7023 18.8427C31.6134 18.7107 31.4326 18.5299 31.3006 18.441C31.0642 18.2817 31.029 18.2792 28.9149 18.2792H26.7692L26.8178 18.6917ZM0 26.8143V30.7973H15.932H31.8641V26.8143V22.8312H29.8451H27.8261L27.7756 23.1681C27.6322 24.1243 27.0009 25.2853 26.2425 25.9874C24.3872 27.705 21.6348 27.8207 19.612 26.2662C19.0689 25.8488 18.4852 25.1149 18.1777 24.4629C17.937 23.9527 17.7102 23.2227 17.7102 22.9586C17.7102 22.8391 17.5823 22.8312 15.6556 22.8312H13.601L13.5505 23.1681C13.4072 24.1243 12.7759 25.2853 12.0174 25.9874C10.1622 27.705 7.40975 27.8207 5.38695 26.2662C4.84391 25.8488 4.26018 25.1149 3.95264 24.4629C3.71202 23.9527 3.48513 23.2227 3.48513 22.9586C3.48513 22.8397 3.36955 22.8312 1.74257 22.8312H0V26.8143Z" fill="#DBBAA7"/>
<path d="M27.7939 5.66859C28.8538 4.53817 30.7319 2.89564 32.0003 1.98967C29.38 5.29761 27.0494 10.1608 26.1109 14.1335C25.8673 15.1642 25.8526 15.5575 26.02 16.5537C26.02 16.5537 26.1767 17.0285 26.1519 17.3381C26.1281 17.6334 25.9167 18.0593 25.9167 18.0593C25.7079 18.6997 25.6471 18.8175 25.3733 19.1106C24.944 19.5703 24.2314 19.9406 23.6017 20.0314C23.1196 20.1009 23.0404 20.0907 22.3733 19.8739C21.7062 19.657 21.6362 19.6186 21.2871 19.2789C20.8315 18.8356 20.4729 18.1173 20.3951 17.4921C20.3455 17.0944 20.3653 16.9635 20.5701 16.3335C20.7959 15.6389 20.8118 15.6117 21.2907 15.0992C21.7194 14.6405 21.8563 14.4289 22.3896 13.3998C24.0465 10.2029 25.5238 8.08973 27.7939 5.66859Z" fill="#DBBAA7"/>
</svg>
