<svg width="32" height="32" viewBox="0 0 32 32" fill="none" xmlns="http://www.w3.org/2000/svg">
<path fill-rule="evenodd" clip-rule="evenodd" d="M0.0976862 0.116829C-0.145181 0.385132 -0.108807 0.430068 2.30974 2.84924L4.62516 5.16528L4.55022 5.44559C4.44867 5.82514 4.51748 6.129 4.7839 6.47805L5.00615 6.76917L4.8739 7.17203C4.57922 8.06963 4.64278 8.97597 5.06346 9.87719L5.31151 10.4084L12.7419 17.8457L20.1723 25.2829L19.8938 25.5954C19.3847 26.1665 19.3938 26.6374 19.9242 27.182C20.2625 27.5293 20.5978 27.6588 20.9789 27.5893C21.1758 27.5534 21.4032 27.3577 22.4329 26.3381L23.6534 25.1296L25.4622 26.9392L27.271 28.7487L26.5134 29.5157C25.6758 30.3638 25.5616 30.5719 25.6862 31.0231C25.7551 31.2727 26.1123 31.6733 26.4489 31.8786C26.6854 32.0228 27.0563 32.0376 27.2933 31.9121C27.5926 31.7537 31.9182 27.3631 31.9656 27.1697C32.0626 26.7736 31.9615 26.5024 31.5711 26.1121C31.316 25.8569 31.1308 25.7272 30.9698 25.6909C30.5325 25.5923 30.3367 25.7035 29.5089 26.5207L28.7434 27.2764L26.9465 25.4525L25.1497 23.6285L26.3453 22.4245C27.4218 21.3406 27.5453 21.1945 27.5845 20.9591C27.6669 20.463 27.2217 19.8107 26.6519 19.5932C26.2917 19.4556 25.9897 19.5432 25.5871 19.902L25.2747 20.1805L17.8374 12.7502L10.4002 5.31978L9.86892 5.07173C8.9677 4.65105 8.06136 4.58749 7.16376 4.88217L6.7609 5.01441L6.46978 4.79217C6.12073 4.52574 5.81687 4.45693 5.43732 4.55849L5.15702 4.63343L2.84097 2.318C0.401301 -0.120976 0.350115 -0.1621 0.0976862 0.116829ZM9.43144 6.72886C9.72805 6.86235 10.2958 7.40358 13.5719 10.676C16.9117 14.012 17.3687 14.491 17.3687 14.6565C17.3687 14.8178 17.1881 15.0254 16.1036 16.1108C15.0154 17.2001 14.8122 17.3769 14.6494 17.3769C14.4825 17.3769 14.0137 16.93 10.6677 13.5802C6.38585 9.29346 6.53353 9.47258 6.53353 8.56473C6.53353 8.19243 6.56697 8.02194 6.6949 7.74251C7.17901 6.68505 8.3611 6.24719 9.43144 6.72886ZM17.8547 18.0992C18.1503 18.3062 18.0575 18.4711 17.1187 19.4081L16.2438 20.2813L15.9928 20.0303L15.7418 19.7794L16.6382 18.8906C17.1312 18.4018 17.5754 18.0019 17.6252 18.0019C17.675 18.0019 17.7783 18.0457 17.8547 18.0992ZM19.7079 18.6626C19.9521 18.9069 19.8619 19.0411 18.6188 20.283L17.4315 21.469L17.1657 21.2031L16.8999 20.9371L18.1186 19.7539C19.3579 18.5508 19.4991 18.4538 19.7079 18.6626ZM20.2543 20.4803C20.5013 20.7038 20.4132 20.8544 19.4949 21.7787L18.6213 22.658L18.3543 22.3901L18.0874 22.1223L18.9707 21.2496C19.8874 20.3438 20.0174 20.2659 20.2543 20.4803ZM22.0828 21.0375C22.3203 21.2751 22.2311 21.4076 20.9954 22.6517L19.8097 23.8455L19.554 23.5907L19.2983 23.3358L20.474 22.1357C21.7071 20.8771 21.8351 20.7898 22.0828 21.0375Z" fill="#DBBAA7"/>
</svg>
