<svg width="32" height="21" viewBox="0 0 32 21" fill="none" xmlns="http://www.w3.org/2000/svg">
<path fill-rule="evenodd" clip-rule="evenodd" d="M8.63559 0.0497963C5.74977 0.49255 3.20508 2.12387 1.60532 4.55666C0.939723 5.56884 0.423334 6.8209 0.151458 8.08185C-0.036451 8.95352 -0.0529814 11.0519 0.12134 11.9107C0.289086 12.7369 0.635162 13.7648 0.987185 14.4823L1.29663 15.1129L0.698716 17.342C0.369923 18.568 0.100865 19.6253 0.100865 19.6916C0.100865 19.8482 0.292593 20.0193 0.468041 20.0193C0.543994 20.0193 1.59462 19.7533 2.80272 19.4281L4.9992 18.837L5.63387 19.1396C6.46171 19.5344 6.98467 19.7177 7.89898 19.9334C8.60485 20.0999 8.72882 20.11 10.0567 20.1096C11.2758 20.1091 11.5478 20.0906 12.0766 19.9723C13 19.7655 13.7647 19.4939 14.5963 19.0774C17.769 17.4885 19.8918 14.3158 20.1283 10.8096C20.3307 7.80671 19.2971 5.03047 17.1934 2.92678C15.7978 1.53128 14.0906 0.603317 12.1086 0.16313C11.4422 0.0151077 9.31415 -0.054333 8.63559 0.0497963ZM20.3381 0.0810414C19.5267 0.211156 18.4333 0.554727 17.627 0.932924C17.2515 1.109 16.9444 1.2718 16.9444 1.29465C16.9444 1.31751 17.1346 1.49828 17.3671 1.69639C18.7747 2.89604 19.9911 4.72447 20.6008 6.55704C22.0041 10.7757 20.7259 15.5023 17.3984 18.3992C17.1487 18.6166 16.9444 18.8124 16.9444 18.8342C16.9444 18.9083 18.2876 19.5029 18.8877 19.6945C20.0047 20.051 20.4682 20.1133 21.9849 20.1111C23.2724 20.1093 23.4114 20.0977 24.1114 19.9329C25.0243 19.7181 25.5478 19.5348 26.3746 19.1405L27.0073 18.8388L29.2077 19.4291C30.418 19.7537 31.4743 20.0193 31.5552 20.0193C31.7239 20.0193 31.9095 19.8418 31.9095 19.6803C31.9095 19.6199 31.64 18.5677 31.3107 17.3422L30.712 15.114L30.9927 14.5455C31.3478 13.8263 31.6824 12.8617 31.8603 12.0451C31.978 11.504 31.9988 11.2146 32 10.0948C32.0011 8.95095 31.9822 8.69066 31.855 8.09431C31.2806 5.40197 29.7869 3.179 27.5359 1.66634C26.4507 0.937181 25.4407 0.504071 24.1114 0.197757C23.4565 0.0468538 23.2092 0.0228722 22.1415 0.00640431C21.2795 -0.00680753 20.7492 0.0151075 20.3381 0.0810414ZM5.5588 9.03435C6.48863 9.69125 6.11601 11.193 4.99657 11.3005C3.56381 11.4382 3.04686 9.49727 4.35915 8.90749C4.70466 8.75221 5.23946 8.80875 5.5588 9.03435ZM10.5431 8.90812C11.0134 9.10461 11.3063 9.54799 11.3063 10.0635C11.3063 10.9938 10.3506 11.5905 9.51127 11.1842C8.59433 10.7403 8.59113 9.39727 9.50594 8.94444C9.82353 8.78727 10.2206 8.77331 10.5431 8.90812ZM15.7411 8.90843C16.2433 9.11826 16.5263 9.53452 16.5263 10.0635C16.5263 10.4454 16.4201 10.6975 16.1516 10.9524C15.4609 11.6086 14.3546 11.3087 14.0885 10.3932C14.0024 10.0972 14.0024 10.0298 14.0885 9.73383C14.2971 9.01594 15.0719 8.62892 15.7411 8.90843Z" fill="#DBBAA7"/>
</svg>
