<svg width="96" height="24" viewBox="0 0 96 24" fill="none" xmlns="http://www.w3.org/2000/svg">
<path d="M59.833 20.7665H62.9391V2.9375H59.833V20.7665Z" fill="#393939"/>
<path fill-rule="evenodd" clip-rule="evenodd" d="M42.7091 20.5845C43.3841 20.8651 44.0706 21.0055 44.7684 21.0055C45.9213 21.0055 46.9529 20.7248 47.8632 20.1635C48.7733 19.6022 49.4788 18.8286 49.9794 17.8425C50.4801 16.8488 50.7303 15.7224 50.7303 14.4632C50.7303 13.2041 50.4724 12.0777 49.9567 11.0841C49.4408 10.0904 48.7241 9.32052 47.8062 8.77439C46.8884 8.22067 45.8454 7.94761 44.6773 7.95519C43.9341 7.95519 43.2211 8.09931 42.5383 8.38755C41.8557 8.67579 41.2868 9.08539 40.8317 9.61635C40.7966 9.65677 40.7624 9.6976 40.7293 9.73884V2.94897H37.6118V20.7666H40.7066L40.7003 19.1021C40.7803 19.2002 40.8659 19.2961 40.9568 19.3899C41.4498 19.8981 42.0339 20.2962 42.7091 20.5845ZM45.8948 17.706C45.3866 18.017 44.8063 18.1725 44.1539 18.1725C43.5092 18.1725 42.9176 18.0131 42.3791 17.6946C41.8404 17.3684 41.4119 16.9247 41.0933 16.3633C40.7823 15.8021 40.6268 15.1648 40.6268 14.4518C40.6193 13.7388 40.7709 13.1017 41.0819 12.5404C41.4006 11.9715 41.8291 11.5316 42.3677 11.2206C42.9062 10.902 43.5017 10.7465 44.1539 10.7541C44.8063 10.7465 45.3866 10.8982 45.8948 11.2092C46.4106 11.5126 46.8049 11.9488 47.0781 12.5177C47.3587 13.079 47.4991 13.7237 47.4991 14.4518C47.4991 15.1801 47.3587 15.8248 47.0781 16.3861C46.8049 16.9475 46.4106 17.3874 45.8948 17.706Z" fill="#393939"/>
<path d="M1.57031 4.01855H5.12019L8.29569 15.6155L11.6738 4.01855H14.6321L18.2957 15.3828L21.3449 4.01855H24.5989L19.7976 20.7667H16.7369L13.0114 9.66465L9.59169 20.7667H6.49694L1.57031 4.01855Z" fill="#393939"/>
<path fill-rule="evenodd" clip-rule="evenodd" d="M29.8413 21.0623C28.6048 21.07 27.4898 20.7968 26.4962 20.2432C25.51 19.6818 24.7327 18.9043 24.1637 17.9107C23.6024 16.9171 23.3218 15.7831 23.3218 14.5087C23.3218 13.2723 23.61 12.1536 24.1865 11.1523C24.7629 10.1511 25.5442 9.3698 26.5303 8.8085C27.5164 8.2472 28.6162 7.96655 29.8298 7.96655C31.1952 7.96655 32.3898 8.26995 33.4138 8.87677C34.4454 9.48358 35.2153 10.3445 35.7235 11.4595C36.2393 12.567 36.4252 13.8375 36.281 15.2711H26.5352C26.5624 15.8422 26.7049 16.3618 26.9627 16.8298C27.2509 17.3456 27.6529 17.7476 28.1687 18.0358C28.6845 18.3241 29.2609 18.4682 29.8982 18.4682C30.3835 18.4606 30.8349 18.3772 31.252 18.218C31.6693 18.0511 32.0219 17.8273 32.3102 17.5466C32.606 17.266 32.8147 16.9475 32.936 16.591H36.19C35.9928 17.4632 35.5984 18.2407 35.0068 18.9233C34.415 19.5985 33.6718 20.1256 32.7767 20.5048C31.8817 20.8841 30.9032 21.07 29.8413 21.0623ZM26.974 12.1422C26.7923 12.4592 26.6663 12.8005 26.5962 13.1662H33.0565C33.0097 12.7042 32.867 12.2832 32.6288 11.9033C32.3557 11.4557 31.984 11.1106 31.5138 10.8679C31.0435 10.6176 30.5125 10.4924 29.9209 10.4924C29.2913 10.4924 28.7187 10.6365 28.2028 10.9248C27.687 11.213 27.2774 11.6188 26.974 12.1422Z" fill="#393939"/>
<path d="M53.0176 8.2282C53.0176 7.21179 53.2489 6.30915 53.7116 5.52029C54.1743 4.72385 54.8229 4.10565 55.6573 3.66572C56.4991 3.21819 57.4815 2.98684 58.604 2.97168V5.73647C58.0806 5.74405 57.6331 5.85404 57.2615 6.06643C56.8974 6.27123 56.6168 6.57084 56.4195 6.96527C56.238 7.32839 56.14 7.74937 56.1256 8.2282H58.5358V10.8565H56.1238V20.7665H53.0176V10.8565H51.0151V8.2282H53.0176Z" fill="#393939"/>
<path fill-rule="evenodd" clip-rule="evenodd" d="M70.8348 21.0395C69.5681 21.0395 68.4341 20.7626 67.4328 20.209C66.4392 19.6476 65.6579 18.874 65.0891 17.8879C64.5277 16.8942 64.2471 15.7679 64.2471 14.5086C64.2471 13.242 64.5277 12.1118 65.0891 11.1181C65.6579 10.1169 66.4392 9.33938 67.4328 8.78567C68.4341 8.23194 69.5681 7.95508 70.8348 7.95508C72.1091 7.95508 73.2469 8.23194 74.2481 8.78567C75.2569 9.33938 76.0421 10.1131 76.6033 11.1067C77.1646 12.1004 77.4491 13.2344 77.4567 14.5086C77.4491 15.7679 77.1646 16.8942 76.6033 17.8879C76.0496 18.874 75.2683 19.6476 74.2594 20.209C73.2507 20.7626 72.1091 21.0395 70.8348 21.0395ZM70.8348 18.1837C71.5023 18.1837 72.0939 18.032 72.6097 17.7286C73.1256 17.4176 73.5237 16.9852 73.8044 16.4315C74.0851 15.8702 74.2253 15.2292 74.2253 14.5086C74.2253 13.7805 74.0851 13.1357 73.8044 12.5745C73.5237 12.0132 73.1256 11.5808 72.6097 11.2774C72.0939 10.9664 71.5023 10.8109 70.8348 10.8109C70.1749 10.8109 69.5871 10.9664 69.0712 11.2774C68.5631 11.5808 68.1686 12.0132 67.8879 12.5745C67.6073 13.1357 67.4708 13.7805 67.4783 14.5086C67.4783 15.2292 67.6187 15.8702 67.8993 16.4315C68.1876 16.9852 68.5819 17.4176 69.0826 17.7286C69.5908 18.032 70.1749 18.1837 70.8348 18.1837Z" fill="#393939"/>
<path d="M80.8132 8.22827H77.3545L81.0977 20.7666H84.1242L86.5862 12.7584L89.2437 20.7666H92.225L95.98 8.22827H92.8512L90.7212 16.0326L88.3675 8.22827H85.3416L82.9994 16.2045L80.8132 8.22827Z" fill="#393939"/>
</svg>
