<svg width="134" height="37" viewBox="0 0 134 37" fill="none" xmlns="http://www.w3.org/2000/svg">
<path d="M46.115 27.0475H50.2736V19.9184H52.0817L56.4986 27.0475H60.9413L56.0595 19.1952C58.2293 18.5495 59.8565 17.0771 59.8565 14.2875V14.1842C59.8565 10.3614 57.0927 8.5791 52.7275 8.5791H46.115V27.0475ZM50.2736 17.0771V11.782H52.6241C54.6389 11.782 55.7754 12.4278 55.7754 14.3133V14.4167C55.7754 16.199 54.7164 17.0771 52.6241 17.0771H50.2736Z" fill="#393939"/>
<path d="M68.0792 27.3316C71.7728 27.3316 74.0975 25.7044 74.5366 22.7855H70.9979C70.7655 23.9221 69.9131 24.6712 68.1825 24.6712C66.142 24.6712 64.928 23.3797 64.8247 21.1325H74.5625V20.0993C74.5625 15.269 71.4629 13.2285 67.9759 13.2285C64.0497 13.2285 61.0276 15.9923 61.0276 20.2542V20.4608C61.0276 24.7745 63.998 27.3316 68.0792 27.3316ZM64.8763 18.8336C65.1604 16.9222 66.2969 15.8115 67.9759 15.8115C69.7582 15.8115 70.7914 16.793 70.9205 18.8336H64.8763Z" fill="#393939"/>
<path d="M76.3425 27.0475H80.0621V7.41675H76.3425V27.0475Z" fill="#393939"/>
<path d="M87.1982 27.3317C89.4198 27.3317 90.7883 26.2985 91.4857 24.9296V27.0476H95.2053V13.5386H91.4857V21.4683C91.4857 23.4573 90.2458 24.4388 88.6708 24.4388C87.0696 24.4388 86.3197 23.5606 86.3197 21.7266V13.5386H82.6006V22.2432C82.6006 25.7819 84.5636 27.3317 87.1982 27.3317Z" fill="#393939"/>
<path d="M97.7446 27.0475H101.491V19.0661C101.491 17.2322 102.653 16.3022 104.099 16.3022C105.417 16.3022 106.217 17.0771 106.217 18.8078V27.0475H109.937V19.0661C109.937 17.2322 111.099 16.3022 112.545 16.3022C113.888 16.3022 114.664 17.0771 114.664 18.8078V27.0475H118.383V18.3945C118.383 14.8041 116.446 13.2285 113.94 13.2285C112.236 13.2285 110.479 13.9517 109.394 15.579C108.749 13.9776 107.406 13.2285 105.623 13.2285C103.608 13.2285 102.162 14.3392 101.491 15.6048V13.5384H97.7446V27.0475Z" fill="#393939"/>
<path d="M127.032 27.3316C130.726 27.3316 133.051 25.7044 133.489 22.7855H129.951C129.718 23.9221 128.866 24.6712 127.135 24.6712C125.094 24.6712 123.881 23.3797 123.777 21.1325H133.515V20.0993C133.515 15.269 130.415 13.2285 126.928 13.2285C123.002 13.2285 119.98 15.9923 119.98 20.2542V20.4608C119.98 24.7745 122.951 27.3316 127.032 27.3316ZM123.829 18.8336C124.113 16.9222 125.25 15.8115 126.928 15.8115C128.711 15.8115 129.744 16.793 129.874 18.8336H123.829Z" fill="#393939"/>
<path fill-rule="evenodd" clip-rule="evenodd" d="M31.803 9.684L31.5519 9.23556C31.228 8.69324 30.7712 8.24252 30.2246 7.92612L18.1885 0.984313C17.6435 0.668175 17.0249 0.501138 16.3948 0.5H15.8746C15.2445 0.501138 14.6259 0.668175 14.0808 0.984313L2.04487 7.94406C1.50132 8.25836 1.0498 8.70995 0.735437 9.2535L0.484313 9.70194C0.168158 10.2469 0.00112 10.8656 0 11.4956V25.3972C0.00112 26.0273 0.168158 26.6459 0.484313 27.1909L0.735437 27.6393C1.05793 28.1766 1.50762 28.6263 2.04487 28.9488L14.0988 35.8905C14.6411 36.2132 15.2616 36.3808 15.8925 36.3748H16.3948C17.0249 36.3737 17.6435 36.2066 18.1885 35.8905L30.2246 28.9309C30.7735 28.6236 31.2267 28.1704 31.5339 27.6214L31.803 27.173C32.1154 26.6264 32.2822 26.0087 32.2873 25.3792V11.4777C32.2863 10.8477 32.1192 10.229 31.803 9.684ZM15.8746 4.08741H16.3948L26.9062 10.1503L16.1437 16.3566L5.38125 10.1503L15.8746 4.08741ZM17.9374 31.8906L28.4308 25.8277L28.6998 25.3793V13.2536L17.9374 19.4779V31.8906Z" fill="#393939"/>
</svg>
