<svg width="32" height="32" viewBox="0 0 32 32" fill="none" xmlns="http://www.w3.org/2000/svg">
<path fill-rule="evenodd" clip-rule="evenodd" d="M14.1399 0.103539C9.43468 0.664632 5.22765 3.2726 2.60066 7.25673C-0.221189 11.5363 -0.789414 17.1027 1.10575 21.9C3.08231 26.9033 7.57042 30.672 12.7949 31.7155C13.9959 31.9554 14.5276 32.0028 16.0167 32.0028C17.5062 32.0028 18.0387 31.9553 19.2384 31.7153C24.4809 30.6669 28.9478 26.9147 30.9234 21.9C31.7005 19.9273 32 18.2914 32 16.0194C32 14.5304 31.9526 13.9987 31.7127 12.7977C30.6682 7.56815 26.9053 3.08698 21.8972 1.10855C19.5194 0.169226 16.6771 -0.199059 14.1399 0.103539ZM17.9873 2.03324C19.8814 2.30793 21.6716 2.93815 23.2662 3.89181C23.811 4.21755 25.1718 5.20486 25.2496 5.33079C25.2886 5.39379 5.47113 25.2782 5.3694 25.2782C5.30897 25.2782 4.59217 24.3495 4.18647 23.7455C3.75832 23.108 3.02438 21.6595 2.76013 20.9303C2.47192 20.1349 2.15512 18.8631 2.02706 17.9869C1.89506 17.0842 1.87711 15.145 1.99259 14.2678C2.34699 11.5766 3.44521 9.05794 5.17747 6.96389C7.50893 4.14542 10.9791 2.313 14.6716 1.9506C15.4653 1.87265 17.1737 1.91525 17.9873 2.03324ZM11.0935 6.32004C10.9836 6.3871 10.8512 6.50665 10.7995 6.58566C10.6637 6.79305 9.21185 11.8164 9.09455 12.4849C8.96493 13.2237 9.00916 14.5377 9.18626 15.2081C9.38088 15.9451 9.66721 16.6312 10.0176 17.2006L10.3395 17.7237L15.8353 12.2283C20.9698 7.09402 21.3255 6.72454 21.248 6.60606C21.2023 6.53624 21.0722 6.41581 20.9588 6.33843L20.7526 6.19767L16.023 6.19792C11.4454 6.19811 11.287 6.20205 11.0935 6.32004ZM27.1091 7.27682C28.0045 8.42759 28.8336 9.89548 29.2732 11.1086C29.5614 11.904 29.8782 13.1758 30.0062 14.052C30.1382 14.9547 30.1562 16.8939 30.0407 17.7711C29.6257 20.9229 28.226 23.7716 25.9974 26.0002C23.7688 28.2288 20.9201 29.6285 17.7683 30.0435C16.8911 30.159 14.9519 30.141 14.0492 30.009C11.5361 29.6417 9.2918 28.682 7.27402 27.1119C6.99012 26.891 6.7579 26.6906 6.7579 26.6665C6.7579 26.6425 8.23242 25.1485 10.0346 23.3466L13.3112 20.0704L13.8037 20.2312C14.0746 20.3197 14.4723 20.4254 14.6873 20.466L15.0783 20.54V22.7527V24.9654L13.5299 24.9657C12.0953 24.9658 11.9666 24.975 11.7777 25.0902C11.1734 25.4586 11.1734 26.349 11.7777 26.7174C11.9756 26.838 12.1004 26.8417 16.0167 26.8417C19.9329 26.8417 20.0577 26.838 20.2556 26.7174C20.8599 26.349 20.8599 25.4586 20.2556 25.0902C20.0667 24.975 19.938 24.9658 18.5034 24.9657L16.955 24.9654V22.7554V20.5454L17.3489 20.4728C19.1819 20.135 20.9372 18.9261 21.9555 17.3002C22.6108 16.2539 22.9462 15.1815 23.0037 13.9489C23.0462 13.0369 22.9732 12.4275 22.7098 11.4969L22.5291 10.8583L24.5744 8.80951C25.6993 7.68264 26.6394 6.7607 26.6636 6.7607C26.6877 6.7607 26.8882 6.99298 27.1091 7.27682Z" fill="#DBBAA7"/>
</svg>
