<svg width="22" height="32" viewBox="0 0 22 32" fill="none" xmlns="http://www.w3.org/2000/svg">
<path fill-rule="evenodd" clip-rule="evenodd" d="M7.67166 0.0730012C6.90205 0.201592 5.95484 0.652505 5.25212 1.22495C4.59247 1.76232 3.94864 2.73509 3.63957 3.66155L3.49354 4.09915L3.47616 10.2428L3.45878 16.3865L2.62428 17.2131C1.7394 18.0897 1.33581 18.6295 0.875707 19.5522C0.217123 20.8726 0.000824767 21.8269 1.20859e-05 23.416C-0.00055054 24.414 0.0180161 24.6205 0.164174 25.2429C0.958351 28.6237 3.54024 31.1472 6.93181 31.8573C7.69567 32.0173 8.98289 32.0472 9.81651 31.9244C13.4198 31.3934 16.2408 28.7407 17.0365 25.1351C17.2258 24.2773 17.2428 22.6552 17.0713 21.805C16.6756 19.8425 15.7027 18.1633 14.1991 16.8479L13.7146 16.424V10.4688C13.7146 3.8981 13.7236 4.06495 13.3194 3.13C12.368 0.92963 10.0513 -0.3244 7.67166 0.0730012ZM9.09567 2.44284C9.8709 2.58756 10.6652 3.1675 11.0055 3.83734C11.3477 4.51068 11.3375 4.28544 11.3383 11.228L11.339 17.6692L11.9798 18.146C13.3633 19.1754 14.2043 20.321 14.585 21.6946C15.1904 23.8794 14.581 26.1965 12.98 27.7976C12.1893 28.5882 11.2338 29.1298 10.0962 29.4322C9.5829 29.5686 9.36223 29.5921 8.58843 29.5921C7.81463 29.5921 7.59396 29.5686 7.08065 29.4322C5.20211 28.9329 3.72359 27.7076 2.93192 25.9941C2.4715 24.9976 2.27452 23.809 2.39623 22.7622C2.6201 20.8365 3.43672 19.4786 5.15016 18.1833L5.80656 17.687L5.83781 11.0806L5.86907 4.47423L6.09493 4.00131C6.65212 2.83462 7.85295 2.21092 9.09567 2.44284ZM15.84 4.07546C15.6404 4.15485 15.354 4.42597 15.2406 4.64302C15.1921 4.73592 15.1524 4.95528 15.1524 5.13063C15.1524 5.30598 15.1921 5.52534 15.2406 5.61824C15.359 5.84485 15.6441 6.10791 15.8597 6.18936C15.9734 6.23237 16.9252 6.25588 18.5488 6.25588C21.3677 6.25588 21.2983 6.26619 21.6835 5.79028C21.8526 5.58135 21.8726 5.51159 21.8726 5.13063C21.8726 4.74967 21.8526 4.6799 21.6835 4.47098C21.2976 3.99419 21.3709 4.00488 18.5291 4.00932C17.0073 4.01169 15.9339 4.03814 15.84 4.07546ZM8.15271 8.35529C7.86695 8.47925 7.72523 8.61309 7.58158 8.89459C7.4683 9.11646 7.46318 9.34301 7.46318 14.0989C7.46318 18.5684 7.4533 19.0712 7.36534 19.0712C7.0559 19.0712 6.04442 19.6364 5.55763 20.0813C3.73922 21.7433 3.60525 24.6046 5.26219 26.3942C5.8792 27.0607 6.47127 27.435 7.33971 27.7077C7.72573 27.8289 7.94291 27.8544 8.58843 27.8544C9.47888 27.8544 9.9743 27.7349 10.7452 27.3341C11.323 27.0337 12.1697 26.2013 12.4945 25.6144C13.3341 24.0974 13.2652 22.324 12.3109 20.8885C11.7961 20.1142 10.8907 19.4134 10.0671 19.1517L9.71543 19.04L9.71455 14.0833C9.71374 9.34363 9.70849 9.11639 9.59528 8.89459C9.44906 8.60809 9.30709 8.47656 9.01015 8.35247C8.72296 8.23251 8.43364 8.23345 8.15271 8.35529ZM15.84 8.88903C15.6404 8.96842 15.354 9.23954 15.2406 9.45659C14.994 9.92857 15.226 10.6621 15.7074 10.9326C15.9561 11.0724 15.9976 11.0753 17.4533 11.057L18.9445 11.0382L19.1807 10.8579C19.6003 10.5377 19.7538 9.99296 19.5572 9.52248C19.4277 9.21254 19.2944 9.07313 18.997 8.93654C18.7778 8.83583 18.5773 8.82201 17.3716 8.82427C16.6137 8.8257 15.9262 8.85477 15.84 8.88903ZM15.8405 13.7321C15.3746 13.9342 15.1519 14.2707 15.1534 14.7703C15.1548 15.195 15.3493 15.5499 15.685 15.7401C15.9319 15.8799 15.9531 15.881 18.5156 15.882C21.3169 15.8831 21.2621 15.8893 21.603 15.5291C21.924 15.1899 21.9972 14.6854 21.7855 14.2708C21.6393 13.9843 21.4973 13.8528 21.2004 13.7287C20.8611 13.587 16.1683 13.59 15.8405 13.7321Z" fill="#DBBAA7"/>
</svg>
