<svg width="29" height="28" viewBox="0 0 29 28" fill="none" xmlns="http://www.w3.org/2000/svg">
<path fill-rule="evenodd" clip-rule="evenodd" d="M12.4781 0.0899611C12.2656 0.194677 12.0948 0.417258 12.0482 0.649868C12.0298 0.741761 12.0835 1.37263 12.1675 2.05177L12.3202 3.2866H20.0262H27.7321L27.887 2.05358C27.9722 1.37548 28.0267 0.74461 28.0081 0.651676C27.9604 0.413203 27.7879 0.191663 27.569 0.0877693C27.3988 0.0070546 26.7001 -0.00105522 20.0197 9.54998e-05C13.3504 0.00119142 12.641 0.00968482 12.4781 0.0899611ZM12.5776 5.08117C12.5787 5.16408 12.7828 6.64971 13.0313 8.38264L13.483 11.5334L14.0047 11.5642C14.4354 11.5896 14.5907 11.6251 14.8956 11.7678C15.6015 12.0981 16.1405 12.7734 16.2963 13.5225C16.3295 13.6822 16.3566 14.1328 16.3566 14.5239V15.2349L16.6858 15.557C17.05 15.9133 17.3043 16.383 17.3966 16.8701C17.4287 17.0393 17.4526 18.084 17.4526 19.3219V21.4789H21.4242H25.3959L25.4237 21.3556C25.439 21.2878 25.9083 17.6199 26.4666 13.2047C27.0249 8.7895 27.4942 5.12156 27.5095 5.05378L27.5371 4.93049H20.0564H12.5757L12.5776 5.08117ZM6.54726 8.75761C6.35092 8.8615 6.30747 8.93022 5.97804 9.65786C5.71858 10.231 5.46076 10.6076 4.97291 11.1262L4.56408 11.5608H7.77727H10.9905L10.9271 11.4375C10.8922 11.3697 10.6009 11.0541 10.2796 10.7361C9.6137 10.0767 8.69296 9.42908 7.74746 8.95487C7.09193 8.62615 6.86606 8.589 6.54726 8.75761ZM1.6504 13.2061C1.56361 13.2324 1.43182 13.3106 1.35752 13.3799C1.0871 13.6325 1.06852 13.7286 1.06852 14.8732V15.9445H7.89064H14.7128V14.8567C14.7128 13.8188 14.7071 13.7605 14.5895 13.5877C14.5216 13.4881 14.3966 13.355 14.3115 13.2919C14.1568 13.1774 14.1542 13.1773 7.98253 13.1678C4.58671 13.1626 1.73726 13.1799 1.6504 13.2061ZM0.422916 17.6795C0.324009 17.7283 0.188389 17.8448 0.121538 17.9385L0 18.109V22.794V27.4791L0.122195 27.6504C0.389217 28.0247 -0.192772 27.9996 8.21487 27.9996H15.8104L15.7959 23.0543L15.7813 18.109L15.6591 17.9376C15.3924 17.5637 15.94 17.5883 7.88237 17.5896C1.28875 17.5907 0.585825 17.5992 0.422916 17.6795ZM12.6642 20.4686C12.7474 20.5307 12.8663 20.6496 12.9285 20.7329C13.0375 20.879 13.0415 20.9506 13.0415 22.794C13.0415 24.6375 13.0375 24.7091 12.9285 24.8552C12.8663 24.9384 12.7474 25.0573 12.6642 25.1195C12.5142 25.2315 12.4736 25.2324 7.89064 25.2324C3.30771 25.2324 3.26711 25.2315 3.11708 25.1195C3.03384 25.0573 2.91493 24.9384 2.85279 24.8553C2.74474 24.7106 2.73909 24.6239 2.72397 22.8666C2.70874 21.0977 2.71246 21.0203 2.82266 20.7926C2.90491 20.6227 3.00195 20.5239 3.16727 20.4417C3.39577 20.3281 3.42925 20.3274 7.95513 20.3415C12.4619 20.3554 12.5146 20.3569 12.6642 20.4686ZM4.35629 22.794V23.616H7.89064H11.425V22.794V21.9721H7.89064H4.35629V22.794ZM17.4526 25.5338V27.9996H21.0471C25.0203 27.9996 24.8812 28.0115 25.1388 27.6504C25.2597 27.4809 25.2612 27.4551 25.2765 25.2735L25.292 23.068H21.3723H17.4526V25.5338Z" fill="#DBBAA7"/>
</svg>
