<svg width="26" height="26" viewBox="0 0 26 26" fill="none" xmlns="http://www.w3.org/2000/svg">
<path fill-rule="evenodd" clip-rule="evenodd" d="M18.0956 0.0553961C16.9425 0.244451 15.8813 0.697135 14.9561 1.39464C14.7883 1.52112 13.29 2.98171 11.6264 4.6404L8.60172 7.65617L11.8042 10.8594C13.5655 12.6212 15.0181 14.0625 15.0322 14.0622C15.0463 14.062 15.2636 13.9122 15.5153 13.7295C15.7669 13.5467 16.2702 13.2513 16.6336 13.073C18.5924 12.1123 20.6676 12.0469 22.8409 12.8773C22.924 12.909 24.5047 11.1549 24.8204 10.6807C26.4683 8.20478 26.3747 5.01556 24.5853 2.67568C23.588 1.37161 22.206 0.499337 20.5479 0.127277C19.9558 -0.00560571 18.6932 -0.0426135 18.0956 0.0553961ZM4.55547 11.7105C1.4916 14.7859 1.26849 15.0348 0.803499 15.897C0.188499 17.0373 -0.098718 18.4646 0.0303517 19.7388C0.203089 21.4445 0.880666 22.8623 2.08642 24.0414C2.83344 24.7719 3.70017 25.3019 4.6793 25.6271C5.43516 25.8781 5.92247 25.9659 6.72083 25.9949C7.8485 26.0357 8.82438 25.8347 9.89236 25.3416C10.6326 24.9998 11.1325 24.6255 12.0403 23.7334L12.8863 22.902L12.7165 22.4093C12.3107 21.2322 12.1878 19.8827 12.3827 18.7461C12.5918 17.5263 13.0631 16.4144 13.7821 15.4442L13.9826 15.1736L10.7573 11.9483L7.53195 8.72289L4.55547 11.7105ZM18.6465 13.9706C16.3979 14.4249 14.6156 16.1204 13.9805 18.4095C13.8481 18.8865 13.8397 18.9778 13.8417 19.9087C13.8438 20.8169 13.8552 20.9417 13.9783 21.3979C14.5245 23.4227 16.0282 25.0273 17.9868 25.6754C18.3973 25.8113 19.0775 25.9458 19.1232 25.9001C19.1381 25.8851 19.1446 23.1732 19.1374 19.8735L19.1245 13.8741L18.6465 13.9706ZM20.675 19.9068V25.9423L21.0181 25.8773C22.6307 25.5716 24.0679 24.6234 24.968 23.2714C26.2031 21.416 26.3404 19.1279 25.3347 17.1571C24.4849 15.492 22.8836 14.2975 21.0181 13.9374L20.675 13.8711V19.9068Z" fill="#DBBAA7"/>
</svg>
