<svg width="731" height="880" viewBox="0 0 731 880" fill="none" xmlns="http://www.w3.org/2000/svg">
<path fill-rule="evenodd" clip-rule="evenodd" d="M208.41 2.82892C202.709 6.97392 189.369 21.4519 182.836 30.5829C165.583 54.6999 147.634 87.5329 141.494 106.208C135.838 123.411 131.715 139.341 128.819 155.178C126.798 166.235 126.552 170.94 126.425 201C126.267 238.495 126.059 239.995 119.107 253.744C113.652 264.53 107.321 273.166 92.53 290C73.16 312.044 71.477 314.989 74.554 321.472C76.664 325.919 80.719 329.101 91.916 335.096C99.075 338.929 100.698 340.257 101.694 343.096C103.554 348.401 103.228 353.142 100.746 356.907C99.511 358.782 97.725 361.47 96.778 362.883C94.508 366.266 93.591 372.812 94.904 376.255C95.503 377.826 97.437 379.717 99.402 380.655C102.722 382.238 102.793 382.386 101.313 384.645C98.95 388.251 100.336 393.282 104.627 396.68C111.992 402.51 114.725 405.849 115.877 410.425C116.902 414.495 116.698 416.27 114.027 426.559C111.383 436.74 111.132 438.878 111.925 444.474C114.488 462.569 121.245 465.849 153.5 464.649C175.873 463.816 222.468 458.447 246.095 453.98C249.269 453.379 252.767 453.545 257.409 454.517C281.954 459.652 309.215 484.483 337.537 527.5C359.135 560.304 378.041 597.898 401.095 653.879C401.634 655.188 402.251 656.083 402.465 655.868C402.68 655.653 403.666 651.208 404.656 645.989C407.436 631.338 407.18 592.291 404.185 574C399.648 546.29 390.26 513.679 377.988 483C367.902 457.786 361.41 443.456 356.059 434.598C345.447 417.03 315.368 375.338 276.728 324.638C250.003 289.573 242.536 278.095 230.452 253.5C219.722 231.664 213.418 214.831 207.958 193.447C200.12 162.749 197.518 141.091 197.573 107C197.629 71.7209 201.195 43.7559 209.483 13.5979C211.433 6.50092 212.869 0.53592 212.674 0.34092C212.479 0.14592 210.56 1.26492 208.41 2.82892Z" fill="#DBBAA7"/>
<path fill-rule="evenodd" clip-rule="evenodd" d="M520.566 11.25C530.437 45.676 535.132 88.448 533.054 125.002C530.301 173.424 520.554 211.613 500.515 252.5C490.602 272.726 480.586 288.982 467.553 306C417.172 371.785 373.756 431.892 371.511 438.966C371.149 440.106 374.315 449.38 379.604 462.67C384.382 474.676 390.854 491.611 393.986 500.302L399.68 516.103L405.505 508.302C429.132 476.66 452.271 457.977 473.276 453.582C479.344 452.313 481.109 452.394 495.109 454.581C546.614 462.629 587.986 465.743 602.629 462.674C610.571 461.009 613.266 459.147 616.045 453.407C619.611 446.04 619.799 436.607 616.611 425C615.176 419.775 614.011 414.375 614.023 413C614.064 408.093 617.69 402.22 623.058 398.363C629.665 393.616 631.638 389.462 629.6 384.585C628.189 381.208 628.207 381.157 631.21 379.913C638.538 376.878 638.084 365.926 630.24 356.531C628.013 353.864 627.813 352.914 628.274 347.174C628.556 343.66 629.397 340.19 630.143 339.463C630.89 338.736 635.1 336.227 639.5 333.886C649.665 328.479 653.732 325.419 655.628 321.752C659.094 315.049 657.321 310.998 644.71 296.81C624.689 274.287 617.186 264.354 611.236 252.5C604.763 239.602 604.638 238.681 604.486 202.5C604.316 161.872 602.582 149.705 591.919 114.268C582.479 82.895 554.786 35.22 532.619 12.179C528.084 7.465 518.992 0 517.786 0C517.54 0 518.791 5.063 520.566 11.25ZM317 145V193H322.5H328V145V97H322.5H317V145ZM426 145V193H431.5H437V145V97H431.5H426V145ZM454.5 131.552C453.95 131.708 451.866 132.108 449.868 132.441C446.446 133.011 437.303 138.636 438.253 139.587C438.495 139.828 440.323 139.345 442.314 138.513C452.5 134.257 464.703 139.042 470.339 149.5C472.114 152.795 472.494 155.175 472.494 163C472.494 173.164 470.787 178.247 465.749 183.082C459.985 188.614 448.84 190.631 441.345 187.5C438.101 186.144 437.879 186.15 439.048 187.557C439.759 188.414 442.401 190.327 444.92 191.808C448.742 194.055 450.658 194.494 456.5 194.461C468.413 194.395 477.629 188.321 482.863 177.086C486.398 169.498 486.488 157.107 483.066 149.286C480.272 142.9 473.025 135.899 466.972 133.739C462.412 132.111 456.301 131.04 454.5 131.552ZM267.879 133.666C261.125 135.921 254.157 141.681 250.676 147.886C246.721 154.933 245.838 165.899 248.535 174.473C252.405 186.775 263.22 194.352 277 194.415C289.292 194.472 296.872 189.515 301.15 178.624C303.07 173.738 302.02 171.123 300.049 175.881C298.451 179.739 293.311 184.56 288.782 186.449C279.229 190.434 268.245 186.364 263.55 177.099C258.708 167.543 258.193 153.329 262.395 145.203C265.849 138.524 274.711 134.09 281.231 135.78C283.785 136.442 285.161 137.814 287.529 142.063C290.244 146.937 290.937 147.532 294.219 147.807C300.837 148.361 302.722 141.645 297.315 136.776C292.158 132.133 277.203 130.553 267.879 133.666ZM350.169 156.25C350.482 178.239 350.627 179.757 352.836 184.243C355.589 189.833 358.912 192.445 365.321 194.059C374.166 196.287 383.948 191.942 388.009 183.982C390.615 178.875 390.53 177.62 387.861 181.787C385.1 186.099 381.017 188.107 374.909 188.154C368.895 188.201 365.923 186.431 363.436 181.325C361.834 178.034 361.518 174.392 361.178 155.25L360.783 133H355.311H349.839L350.169 156.25ZM391 163V193H396.5H402V163V133H396.5H391V163ZM332.534 543.141C325.76 572.874 323.762 588.476 323.78 611.5C323.793 628.35 325.653 647.184 327.905 653.273C328.714 655.46 328.719 655.459 329.499 652.984C331.33 647.173 343.447 619.065 351.823 601.199L360.872 581.898L348.832 560.199C342.21 548.265 336.211 537.888 335.501 537.141C334.435 536.018 333.918 537.064 332.534 543.141ZM64.105 728.583C53.129 731.534 42.716 739.234 36.426 749.05C34.858 751.497 32.122 757.55 30.346 762.5L27.118 771.5L27.059 750.75L27 730H13.5H0V803V876H13.474H26.948L27.224 824.25L27.5 772.5L30.709 765.726C34.731 757.235 42.472 749.336 50.481 745.55C58.459 741.779 71.105 740.878 79.042 743.514C86.117 745.864 92.994 752.696 95.78 760.142C99.426 769.888 100 779.188 100 828.572V876H113.555H127.11L126.739 821.25C126.41 772.512 126.175 765.847 124.602 760.554C119.434 743.162 109.192 732.629 93.465 728.533C86.127 726.622 71.303 726.647 64.105 728.583ZM163.105 728.583C151.718 731.645 140.627 740.136 134.615 750.394C131.98 754.891 126.971 768.112 127.026 770.425C127.04 771.016 128.412 768.695 130.074 765.267C134.17 756.823 141.35 749.676 149.725 745.709C156.013 742.731 157.255 742.5 167 742.5C178.747 742.5 182.689 743.881 188.889 750.17C193.226 754.569 194.726 757.608 197.056 766.718C198.856 773.758 199 778.08 199 825.16V876H213.083H227.166L226.759 822.75C226.374 772.356 226.239 769.089 224.241 761.846C218.906 742.496 208.353 731.722 191.201 728.115C183.944 726.588 169.634 726.827 163.105 728.583ZM323.5 728.499C309.429 731.643 298.867 737.282 288.362 747.261C255.556 778.423 256.549 835.016 290.405 863.76C296.229 868.704 309.011 875.197 317.5 877.523C326.898 880.098 348.987 880.641 358.641 878.535C381.058 873.644 396.102 859.561 403.976 836.097C405.706 830.942 405.869 829.533 404.812 828.863C402.79 827.581 402.713 827.665 399.176 835.079C394.521 844.835 386.569 853.119 377.645 857.51C360.392 865.999 340.317 866.005 324.18 857.525C312.189 851.224 303.239 839.812 298.484 824.761C295.78 816.2 293.61 797.294 294.612 791.027L295.256 787H349.628H404V784.16C404 778.885 400.079 765.943 396.305 758.761C388.589 744.076 372.412 732.1 355.436 728.504C346.925 726.701 331.56 726.699 323.5 728.499ZM634.561 728.588C584.297 739.811 558.456 794.457 582.236 839.24C595.58 864.369 622.318 879.986 652 879.986C686.767 879.986 716.399 859.054 726.896 827.08C733.484 807.012 730.789 782.776 719.923 764.37C715.103 756.205 701.893 743.124 693.5 738.205C689.65 735.948 682.225 732.661 677 730.9C668.615 728.074 665.974 727.659 654.5 727.368C645.343 727.136 639.449 727.497 634.561 728.588ZM439 736V742H479.5C501.775 742 520 742.241 520 742.536C520 742.831 499.3 770.347 474 803.684L428 864.296V870.148V876H491H554V870.01V864.019L506.648 863.76L459.296 863.5L505.648 802.623L552 741.745V735.873V730H495.5H439V736ZM351.904 737.712C363.205 741.742 369.474 752.454 372.409 772.75L373.024 777H335.012H297V774.545C297 770.842 301.289 759.783 304.92 754.124C314.943 738.505 334.736 731.591 351.904 737.712ZM664.249 738.145C674.742 740.473 685.687 750.521 691.455 763.122C697.122 775.5 698.391 782.885 698.391 803.5C698.391 820.016 698.103 823.538 696.187 830.442C689.674 853.915 677.185 867.107 658.75 869.985C639.004 873.067 622.223 863.835 613.215 844.932C607.154 832.212 605.834 825.892 605.291 807C604.713 786.842 606.658 775.343 612.803 762.587C623.132 741.148 640.529 732.882 664.249 738.145Z" fill="#225B6A"/>
</svg>
