<svg width="45" height="50" viewBox="0 0 45 50" fill="none" xmlns="http://www.w3.org/2000/svg">
<path fill-rule="evenodd" clip-rule="evenodd" d="M10.2065 0.215516C9.77574 0.531495 8.76771 1.63517 8.27405 2.33124C6.97033 4.16971 5.61403 6.67262 5.15006 8.09624C4.72267 9.40764 4.41111 10.622 4.19228 11.8293C4.03956 12.6722 4.02097 13.0308 4.01138 15.3224C3.99944 18.1807 3.98372 18.295 3.4584 19.3431C3.04619 20.1653 2.56779 20.8237 1.45012 22.1069C-0.0135696 23.7874 -0.140745 24.0119 0.0917675 24.5061C0.251209 24.8451 0.557623 25.0877 1.40372 25.5447C1.94469 25.8369 2.06733 25.9381 2.14259 26.1545C2.28314 26.5589 2.25851 26.9203 2.07095 27.2074C1.97763 27.3503 1.84267 27.5552 1.77111 27.6629C1.59958 27.9208 1.53029 28.4198 1.62951 28.6823C1.67477 28.802 1.82091 28.9462 1.9694 29.0177C2.22027 29.1384 2.22564 29.1497 2.1138 29.3219C1.93524 29.5968 2.03997 29.9803 2.36422 30.2393C2.92075 30.6837 3.12727 30.9383 3.21432 31.2871C3.29178 31.5974 3.27636 31.7327 3.07453 32.517C2.87473 33.2931 2.85577 33.4561 2.91569 33.8827C3.10936 35.2621 3.61995 35.5122 6.05729 35.4207C7.74789 35.3572 11.2688 34.9479 13.0542 34.6074C13.294 34.5616 13.5584 34.5742 13.9091 34.6483C15.7639 35.0397 17.8238 36.9327 19.964 40.2119C21.596 42.7126 23.0246 45.5784 24.7667 49.8459C24.8074 49.9457 24.854 50.0139 24.8702 49.9976C24.8865 49.9812 24.961 49.6423 25.0358 49.2445C25.2459 48.1276 25.2265 45.151 25.0002 43.7567C24.6574 41.6443 23.948 39.1583 23.0206 36.8196C22.2585 34.8975 21.7679 33.8051 21.3636 33.1298C20.5617 31.7906 18.2888 28.6124 15.369 24.7474C13.3495 22.0744 12.7853 21.1994 11.8721 19.3245C11.0613 17.6599 10.585 16.3767 10.1724 14.7466C9.58011 12.4064 9.38349 10.7554 9.38764 8.15661C9.39188 5.46725 9.66134 3.33544 10.2876 1.03645C10.435 0.495438 10.5435 0.0407177 10.5287 0.0258525C10.514 0.0109874 10.369 0.0962904 10.2065 0.215516Z" fill="#DBBAA7"/>
<path fill-rule="evenodd" clip-rule="evenodd" d="M33.7939 0.857603C34.5398 3.48194 34.8946 6.74251 34.7375 9.52907C34.5295 13.2203 33.793 16.1315 32.2787 19.2484C31.5297 20.7903 30.7728 22.0295 29.788 23.3268C25.981 28.3417 22.7003 32.9237 22.5306 33.463C22.5033 33.5499 22.7425 34.2568 23.1422 35.27C23.5032 36.1852 23.9923 37.4762 24.2289 38.1387L24.6592 39.3432L25.0994 38.7486C26.8847 36.3364 28.6332 34.9122 30.2204 34.5772C30.679 34.4804 30.8123 34.4866 31.8702 34.6533C35.7622 35.2668 38.8885 35.5042 39.9949 35.2703C40.5951 35.1433 40.7987 35.0014 41.0087 34.5638C41.2782 34.0022 41.2924 33.2831 41.0515 32.3983C40.9431 32 40.855 31.5884 40.8559 31.4835C40.859 31.1095 41.133 30.6618 41.5386 30.3678C42.0379 30.0059 42.187 29.6892 42.033 29.3174C41.9264 29.06 41.9277 29.0561 42.1547 28.9613C42.7084 28.7299 42.6741 27.895 42.0814 27.1788C41.9131 26.9755 41.898 26.9031 41.9328 26.4655C41.9541 26.1977 42.0177 25.9331 42.074 25.8777C42.1305 25.8223 42.4486 25.631 42.7811 25.4526C43.5492 25.0404 43.8565 24.8071 43.9998 24.5276C44.2617 24.0166 44.1277 23.7078 43.1748 22.6262C41.6619 20.9093 41.0949 20.1521 40.6453 19.2484C40.1562 18.2652 40.1468 18.195 40.1353 15.4368C40.1224 12.3397 39.9914 11.4122 39.1856 8.7108C38.4723 6.3192 36.3797 2.68487 34.7047 0.928422C34.362 0.569067 33.6749 0 33.5838 0C33.5652 0 33.6598 0.385959 33.7939 0.857603ZM19.5853 41.4044C19.0735 43.671 18.9225 44.8603 18.9238 46.6155C18.9248 47.9 19.0654 49.3357 19.2355 49.7999C19.2967 49.9666 19.297 49.9665 19.356 49.7779C19.4943 49.3349 20.41 47.1922 21.0429 45.8302L21.7267 44.3589L20.8169 42.7047C20.3165 41.795 19.8632 41.0039 19.8095 40.947C19.729 40.8614 19.6899 40.9411 19.5853 41.4044Z" fill="#225B6A"/>
</svg>
